<?xml version="1.0" standalone="no"?>
<!DOCTYPE svg PUBLIC "-//W3C//DTD SVG 20010904//EN"
 "http://www.w3.org/TR/2001/REC-SVG-20010904/DTD/svg10.dtd">
<svg version="1.0" xmlns="http://www.w3.org/2000/svg"
 width="129.000000pt" height="51.000000pt" viewBox="0 0 129.000000 51.000000"
 preserveAspectRatio="xMidYMid meet">

<g transform="translate(0.000000,51.000000) scale(0.100000,-0.100000)"
fill="#000000" stroke="none">
<path d="M0 255 l0 -255 645 0 645 0 0 255 0 255 -645 0 -645 0 0 -255z m190
130 c0 -11 -12 -15 -45 -15 -42 0 -54 7 -38 23 3 4 24 7 45 7 27 0 38 -4 38
-15z m678 -2 c2 -9 -11 -13 -47 -13 -48 0 -61 7 -44 24 12 11 86 2 91 -11z
m-671 -55 c17 -14 17 -150 1 -166 -17 -17 -78 -15 -100 5 -14 12 -18 31 -18
79 0 56 3 65 27 84 28 22 63 21 90 -2z m161 6 c26 -18 30 -69 6 -95 -14 -15
-14 -21 0 -53 22 -53 -7 -49 -34 4 -11 22 -25 40 -30 40 -6 0 -10 -18 -10 -40
0 -29 -4 -40 -15 -40 -12 0 -15 18 -15 100 l0 100 38 0 c21 0 48 -7 60 -16z
m157 4 c14 -6 25 -15 25 -19 0 -4 3 -14 6 -23 9 -23 -15 -20 -35 5 -12 16 -23
20 -39 15 -20 -7 -22 -14 -22 -71 0 -57 2 -64 22 -71 16 -5 27 -1 39 15 9 11
22 21 28 21 13 0 13 -2 1 -34 -8 -23 -15 -26 -54 -26 -56 0 -66 15 -66 97 0
59 11 86 40 96 23 8 27 8 55 -5z m95 -28 l0 -40 40 0 40 0 0 41 c0 28 4 39 13
37 8 -3 13 -35 15 -101 2 -82 0 -97 -13 -97 -11 0 -15 11 -15 46 l0 45 -37 -3
c-37 -3 -38 -4 -41 -45 -6 -84 -22 -42 -22 57 0 60 4 100 10 100 6 0 10 -18
10 -40z m270 26 c0 -8 -10 -16 -22 -18 -21 -3 -23 -8 -23 -73 0 -65 2 -70 23
-73 46 -7 20 -22 -38 -22 -33 0 -60 4 -60 10 0 6 9 10 20 10 18 0 20 7 20 75
0 68 -2 75 -20 75 -11 0 -20 7 -20 15 0 12 13 15 60 15 45 0 60 -3 60 -14z
m138 -2 c19 -13 22 -24 22 -88 0 -47 -5 -77 -12 -84 -7 -5 -34 -11 -60 -13
l-48 -4 0 102 0 103 38 0 c21 0 48 -7 60 -16z m182 -1 c0 -9 -18 -47 -40 -84
-22 -37 -40 -70 -40 -73 0 -3 18 -6 40 -6 22 0 40 -4 40 -10 0 -6 -27 -10 -60
-10 -38 0 -60 4 -60 11 0 7 18 40 40 75 22 35 40 68 40 74 0 5 -18 10 -40 10
-38 0 -49 8 -33 23 3 4 30 7 60 7 43 0 53 -3 53 -17z"/>
<path d="M121 306 c-18 -22 -10 -117 12 -130 31 -19 52 4 55 63 3 56 -9 81
-38 81 -10 0 -23 -6 -29 -14z"/>
<path d="M290 285 c0 -30 3 -35 24 -35 13 0 29 6 35 14 18 22 -3 56 -34 56
-22 0 -25 -4 -25 -35z"/>
<path d="M950 245 c0 -72 1 -75 23 -75 35 0 47 19 47 75 0 56 -12 75 -47 75
-22 0 -23 -3 -23 -75z"/>
</g>
</svg>
