<?xml version="1.0" encoding="UTF-8"?>
<svg width="3957px" height="1024px" viewBox="0 0 3957 1024" version="1.1" xmlns="http://www.w3.org/2000/svg" xmlns:xlink="http://www.w3.org/1999/xlink">
    <title>Logo dark</title>
    <g id="Logo-dark" stroke="none" stroke-width="1" fill="none" fill-rule="evenodd">
        <path d="M803.590909,623.828608 C803.590909,646.106941 785.445487,664.166667 763.061969,664.166667 L386.455462,664.166667 C386.455462,664.166667 378.375521,521.421023 577.750074,521.061132 L662.700722,457.510302 L393.938031,457.510302 C371.554513,457.510302 353.409091,439.45015 353.409091,417.171818 C353.409091,394.893911 371.554513,376.833333 393.938031,376.833333 L770.54411,376.833333 C770.580055,378.508425 770.514583,380.474836 770.330151,382.687848 C770.004078,387.217367 769.299725,391.642113 768.252611,395.933549 C758.753694,438.963339 716.364595,521.056873 578.499786,521.056873 C578.24817,521.056873 578.001262,521.060706 577.750074,521.061132 L494.299278,583.490124 L763.061969,583.490124 C785.445487,583.490124 803.590909,601.54985 803.590909,623.828608 M888,305 L888,305 L384.76012,305 C320.827478,305 269,356.826701 269,420.759311 C269,484.095774 319.868324,535.542467 382.978301,536.496221 C314.760998,576.774163 269,651.042908 269,736 L269,736 L772.23988,736 C836.172522,736 888,684.172469 888,620.240274 L888,620.240274 C888,556.903811 837.131676,505.457118 774.021699,504.503365 C842.239417,464.225007 888,389.957092 888,305" id="Fill-21" fill="#FFFFFF"></path>
        <text id="Generaize-Copy" font-family="CenturyGothic-Bold, Century Gothic" font-size="561" font-weight="bold" letter-spacing="-11" fill="#FFFFFF">
            <tspan x="993" y="716">Generaize</tspan>
        </text>
    </g>
</svg>