<svg width="22" height="22" viewBox="0 0 22 22" fill="none" xmlns="http://www.w3.org/2000/svg">
<path d="M12.5201 22C11.0481 22 9.97609 21.622 9.30242 20.8659C8.62963 20.1102 8.29279 19.2952 8.29279 18.4217C8.29279 18.1024 8.35136 17.8337 8.4688 17.6152C8.58343 17.3999 8.74967 17.2214 8.95053 17.0985C9.15399 16.9724 9.40437 16.9096 9.7021 16.9096C9.99969 16.9096 10.2498 16.9724 10.4535 17.0985C10.657 17.2244 10.8176 17.3969 10.9349 17.6152C11.0523 17.8337 11.111 18.1024 11.111 18.4217C11.111 18.8082 11.025 19.1229 10.8528 19.3667C10.6803 19.6103 10.4768 19.7697 10.242 19.8457C10.4459 20.1477 10.7668 20.3619 11.2051 20.4879C11.6435 20.6225 12.0818 20.6896 12.5201 20.6896C13.1307 20.6896 13.6825 20.5132 14.1759 20.1606C14.669 19.8075 15.0332 19.2869 15.2681 18.5981C15.503 17.9094 15.6204 17.128 15.6204 16.2542C15.6204 15.3051 15.491 14.4942 15.2329 13.8225C14.9821 13.1421 14.6104 12.638 14.1171 12.3103C13.639 11.9874 13.0851 11.8171 12.5201 11.8191C12.1442 11.8191 11.6749 11.9871 11.111 12.3232L10.0776 12.8775V12.3232L14.7278 5.67021H8.29279V12.5748C8.29279 13.1462 8.41024 13.6166 8.64512 13.9863C8.88001 14.356 9.24001 14.5407 9.72571 14.5407C10.1009 14.5407 10.4614 14.4064 10.8059 14.1372C11.1527 13.8659 11.4543 13.5338 11.6982 13.155C11.7295 13.0788 11.7687 13.0243 11.8156 12.9907C11.8578 12.9507 11.9119 12.9285 11.9683 12.9279C12.0543 12.9279 12.1559 12.9741 12.2737 13.0667C12.3833 13.2007 12.438 13.3562 12.438 13.5327C12.4246 13.6514 12.4049 13.7692 12.3791 13.8856C12.1132 14.524 11.7451 15.0111 11.2753 15.347C10.818 15.6791 10.2777 15.8548 9.72571 15.8512C8.33195 15.8512 7.36884 15.5571 6.83665 14.9694C6.30447 14.381 6.03822 13.5829 6.03822 12.5752V5.67021H2.75V4.38475H6.03822V1.46182L5.28669 0.654721V0H7.47074L8.29247 0.453375V4.38475L16.7944 4.35975L17.6401 5.26682L12.4263 10.8614C12.742 10.7263 13.0743 10.6415 13.4128 10.6093C13.9764 10.6093 14.6104 10.8026 15.315 11.1891C16.0275 11.567 16.5755 12.0881 16.9588 12.7512C17.3425 13.4066 17.589 14.0367 17.6988 14.6414C17.8162 15.2465 17.875 15.7838 17.875 16.2542C17.875 17.3297 17.6634 18.329 17.2409 19.2535C16.8182 20.1772 16.1762 20.8659 15.315 21.3197C14.4538 21.7734 13.5221 22 12.5201 22Z" fill="#2C7DF7"/>
</svg>
