<svg width="20" height="20" viewBox="0 0 20 20" fill="none" xmlns="http://www.w3.org/2000/svg">
<path d="M17.9296 6.56249C17.9557 6.66666 17.9687 6.83593 17.9687 7.0703C17.9687 8.9453 17.513 10.7552 16.6015 12.5C15.664 14.3489 14.3489 15.8203 12.6562 16.914C10.8073 18.138 8.68488 18.75 6.28905 18.75C3.99739 18.75 1.90104 18.138 0 16.914C0.286457 16.9401 0.611978 16.9531 0.97656 16.9531C2.8776 16.9531 4.58332 16.3672 6.09374 15.1953C5.18228 15.1953 4.3815 14.9284 3.6914 14.3945C3.00129 13.8606 2.52604 13.1901 2.26562 12.3828C2.52604 12.4088 2.77343 12.4219 3.00781 12.4219C3.37239 12.4219 3.73697 12.3828 4.10155 12.3047C3.16405 12.0963 2.38281 11.6146 1.75781 10.8594C1.13281 10.1041 0.820311 9.24478 0.820311 8.28124V8.20311C1.39323 8.54165 2.0052 8.72394 2.65624 8.74999C2.10937 8.35936 1.66666 7.86457 1.32812 7.26561C0.989581 6.66666 0.820311 6.00911 0.820311 5.29296C0.820311 4.57682 1.01562 3.89323 1.40625 3.24219C2.42187 4.51822 3.66536 5.53385 5.13671 6.28905C6.60806 7.04426 8.17706 7.46093 9.84373 7.53905C9.79164 7.22655 9.7656 6.91405 9.7656 6.60155C9.7656 5.87239 9.94789 5.1888 10.3125 4.55078C10.6771 3.91276 11.1718 3.41146 11.7968 3.04687C12.4218 2.68229 13.0989 2.5 13.8281 2.5C14.427 2.5 14.9804 2.61719 15.4882 2.85156C15.9961 3.08594 16.4453 3.39844 16.8359 3.78906C17.7734 3.60677 18.6458 3.28125 19.4531 2.8125C19.1406 3.77604 18.5416 4.53124 17.6562 5.07812C18.4375 4.97395 19.2187 4.7526 20 4.41406C19.427 5.24739 18.7369 5.96353 17.9296 6.56249Z" fill="#00A2F3"/>
</svg>
