<svg width="20" height="20" viewBox="0 0 20 20" fill="none" xmlns="http://www.w3.org/2000/svg">
<mask id="mask0_1_6029" style="mask-type:luminance" maskUnits="userSpaceOnUse" x="1" y="1" width="18" height="18">
<path fill-rule="evenodd" clip-rule="evenodd" d="M18.5465 8.40909H10.2035V11.7898H15.0058C14.5581 13.9375 12.686 15.1705 10.2035 15.1705C7.27326 15.1705 4.91279 12.8636 4.91279 10C4.91279 7.13636 7.27326 4.82955 10.2035 4.82955C11.4651 4.82955 12.6047 5.26705 13.5 5.98295L16.1047 3.4375C14.5174 2.08523 12.4826 1.25 10.2035 1.25C5.23837 1.25 1.25 5.14773 1.25 10C1.25 14.8523 5.23837 18.75 10.2035 18.75C14.6802 18.75 18.75 15.5682 18.75 10C18.75 9.48295 18.6686 8.92614 18.5465 8.40909Z" fill="white"/>
</mask>
<g mask="url(#mask0_1_6029)">
<path d="M0.436523 15.1705V4.82959L7.35513 10L0.436523 15.1705Z" fill="#FBBC05"/>
</g>
<mask id="mask1_1_6029" style="mask-type:luminance" maskUnits="userSpaceOnUse" x="1" y="1" width="18" height="18">
<path fill-rule="evenodd" clip-rule="evenodd" d="M18.5465 8.40909H10.2035V11.7898H15.0058C14.5581 13.9375 12.686 15.1705 10.2035 15.1705C7.27326 15.1705 4.91279 12.8636 4.91279 10C4.91279 7.13636 7.27326 4.82955 10.2035 4.82955C11.4651 4.82955 12.6047 5.26705 13.5 5.98295L16.1047 3.4375C14.5174 2.08523 12.4826 1.25 10.2035 1.25C5.23837 1.25 1.25 5.14773 1.25 10C1.25 14.8523 5.23837 18.75 10.2035 18.75C14.6802 18.75 18.75 15.5682 18.75 10C18.75 9.48295 18.6686 8.92614 18.5465 8.40909Z" fill="white"/>
</mask>
<g mask="url(#mask1_1_6029)">
<path d="M0.436523 4.82959L7.35513 10L10.204 7.57391L19.9714 6.02277V0.45459H0.436523V4.82959Z" fill="#EA4335"/>
</g>
<mask id="mask2_1_6029" style="mask-type:luminance" maskUnits="userSpaceOnUse" x="1" y="1" width="18" height="18">
<path fill-rule="evenodd" clip-rule="evenodd" d="M18.5465 8.40909H10.2035V11.7898H15.0058C14.5581 13.9375 12.686 15.1705 10.2035 15.1705C7.27326 15.1705 4.91279 12.8636 4.91279 10C4.91279 7.13636 7.27326 4.82955 10.2035 4.82955C11.4651 4.82955 12.6047 5.26705 13.5 5.98295L16.1047 3.4375C14.5174 2.08523 12.4826 1.25 10.2035 1.25C5.23837 1.25 1.25 5.14773 1.25 10C1.25 14.8523 5.23837 18.75 10.2035 18.75C14.6802 18.75 18.75 15.5682 18.75 10C18.75 9.48295 18.6686 8.92614 18.5465 8.40909Z" fill="white"/>
</mask>
<g mask="url(#mask2_1_6029)">
<path d="M0.436523 15.1705L12.6458 6.02277L15.8609 6.4205L19.9714 0.45459V19.5455H0.436523V15.1705Z" fill="#34A853"/>
</g>
<mask id="mask3_1_6029" style="mask-type:luminance" maskUnits="userSpaceOnUse" x="1" y="1" width="18" height="18">
<path fill-rule="evenodd" clip-rule="evenodd" d="M18.5465 8.40909H10.2035V11.7898H15.0058C14.5581 13.9375 12.686 15.1705 10.2035 15.1705C7.27326 15.1705 4.91279 12.8636 4.91279 10C4.91279 7.13636 7.27326 4.82955 10.2035 4.82955C11.4651 4.82955 12.6047 5.26705 13.5 5.98295L16.1047 3.4375C14.5174 2.08523 12.4826 1.25 10.2035 1.25C5.23837 1.25 1.25 5.14773 1.25 10C1.25 14.8523 5.23837 18.75 10.2035 18.75C14.6802 18.75 18.75 15.5682 18.75 10C18.75 9.48295 18.6686 8.92614 18.5465 8.40909Z" fill="white"/>
</mask>
<g mask="url(#mask3_1_6029)">
<path d="M19.9707 19.5455L7.35447 10L5.72656 8.80686L19.9707 4.82959V19.5455Z" fill="#4285F4"/>
</g>
</svg>
