<svg width="16" height="16" viewBox="0 0 16 16" fill="none" xmlns="http://www.w3.org/2000/svg">
<path d="M13.5 2L8.5 6L9.42979 3.64267L13.5 2Z" fill="#E17726" stroke="#E17726" stroke-width="0.25" stroke-linecap="round" stroke-linejoin="round"/>
<path d="M2.5 2L7.5 6L6.60679 3.62748L2.5 2Z" fill="#E27625" stroke="#E27625" stroke-width="0.25" stroke-linecap="round" stroke-linejoin="round"/>
<path d="M11.9521 11L10.5 13.1646L13.6093 14L14.5 11.0473L11.9521 11Z" fill="#E27625" stroke="#E27625" stroke-width="0.25" stroke-linecap="round" stroke-linejoin="round"/>
<path d="M1.5 11.0473L2.38768 14L5.5 13.1646L4.04938 11L1.5 11.0473Z" fill="#E27625" stroke="#E27625" stroke-width="0.25" stroke-linecap="round" stroke-linejoin="round"/>
<path d="M5.34209 7.69267L4.5 8.87317L7.5 9L7.40001 6L5.34209 7.69267Z" fill="#E27625" stroke="#E27625" stroke-width="0.25" stroke-linecap="round" stroke-linejoin="round"/>
<path d="M10.6579 7.70739L8.56843 6L8.5 9L11.5 8.8746L10.6579 7.70739Z" fill="#E27625" stroke="#E27625" stroke-width="0.25" stroke-linecap="round" stroke-linejoin="round"/>
<path d="M5.5 13L7.5 12.1629L5.77827 11L5.5 13Z" fill="#E27625" stroke="#E27625" stroke-width="0.25" stroke-linecap="round" stroke-linejoin="round"/>
<path d="M8.5 12.1629L10.5 13L10.2267 11L8.5 12.1629Z" fill="#E27625" stroke="#E27625" stroke-width="0.25" stroke-linecap="round" stroke-linejoin="round"/>
<path d="M10.5 13.047L8.5 12L8.66277 13.4044L8.64532 14L10.5 13.047Z" fill="#D5BFB2" stroke="#D5BFB2" stroke-width="0.25" stroke-linecap="round" stroke-linejoin="round"/>
<path d="M5.5 13.047L7.35511 14L7.3435 13.4044L7.5 12L5.5 13.047Z" fill="#D5BFB2" stroke="#D5BFB2" stroke-width="0.25" stroke-linecap="round" stroke-linejoin="round"/>
<path d="M6.5 10L5.5 9.52544L6.20628 9L6.5 10Z" fill="#233447" stroke="#233447" stroke-width="0.25" stroke-linecap="round" stroke-linejoin="round"/>
<path d="M9.5 10L9.79269 9L10.5 9.52544L9.5 10Z" fill="#233447" stroke="#233447" stroke-width="0.25" stroke-linecap="round" stroke-linejoin="round"/>
<path d="M5.18552 13L5.5 11L3.5 11.0437L5.18552 13Z" fill="#CC6228" stroke="#CC6228" stroke-width="0.25" stroke-linecap="round" stroke-linejoin="round"/>
<path d="M10.5 11L10.8082 13L12.5 11.0437L10.5 11Z" fill="#CC6228" stroke="#CC6228" stroke-width="0.25" stroke-linecap="round" stroke-linejoin="round"/>
<path d="M11.5 8L8.5 8.16301L8.77894 10L9.22106 8.89027L10.2895 9.47334L11.5 8Z" fill="#CC6228" stroke="#CC6228" stroke-width="0.25" stroke-linecap="round" stroke-linejoin="round"/>
<path d="M5.71579 9.47334L6.77894 8.89027L7.22107 10L7.5 8.16301L4.5 8L5.71579 9.47334Z" fill="#CC6228" stroke="#CC6228" stroke-width="0.25" stroke-linecap="round" stroke-linejoin="round"/>
<path d="M4.5 9L5.5 11L5.4665 10.0064L4.5 9Z" fill="#E27525" stroke="#E27525" stroke-width="0.25" stroke-linecap="round" stroke-linejoin="round"/>
<path d="M10.5377 10.0064L10.5 11L11.5 9L10.5377 10.0064Z" fill="#E27525" stroke="#E27525" stroke-width="0.25" stroke-linecap="round" stroke-linejoin="round"/>
<path d="M7.52022 9L7.4502 10.3756L7.53871 12L7.55853 9.85917L7.52022 9Z" fill="#E27525" stroke="#E27525" stroke-width="0.25" stroke-linecap="round" stroke-linejoin="round"/>
<path d="M8.48765 9L8.4502 9.85449L8.46892 12L8.55853 10.3756L8.48765 9Z" fill="#E27525" stroke="#E27525" stroke-width="0.25" stroke-linecap="round" stroke-linejoin="round"/>
<path d="M8.87853 10.3621L8.5 11.8534L8.7712 12L10.4492 11L10.5 10L8.87853 10.3621Z" fill="#F5841F" stroke="#F5841F" stroke-width="0.25" stroke-linecap="round" stroke-linejoin="round"/>
<path d="M5.5 10L5.54536 11L7.22804 12L7.5 11.8534L7.1204 10.3621L5.5 10Z" fill="#F5841F" stroke="#F5841F" stroke-width="0.25" stroke-linecap="round" stroke-linejoin="round"/>
<path d="M9.00518 13.6104L9.01921 13.2289L8.8974 13.1406H7.10733L6.99017 13.2289L6.99955 13.6104L5.5 13L6.02483 13.3695L7.08857 14H8.91143L9.97985 13.3695L10.5 13L9.00518 13.6104Z" fill="#C0AC9D" stroke="#C0AC9D" stroke-width="0.25" stroke-linecap="round" stroke-linejoin="round"/>
<path d="M8.37065 12.1318L8.14894 12H6.84641L6.62472 12.1318L6.5 13L6.61548 12.9147H8.3799L8.5 13L8.37065 12.1318Z" fill="#161616" stroke="#161616" stroke-width="0.25" stroke-linecap="round" stroke-linejoin="round"/>
<path d="M14.0384 6.00165L14.5 3.92821L13.805 2L8.5 5.63106L10.5416 7.22369L13.4249 8L14.0602 7.31386L13.7833 7.12853L14.2231 6.75794L13.8864 6.51753L14.3263 6.207L14.0384 6.00165Z" fill="#763E1A" stroke="#763E1A" stroke-width="0.25" stroke-linecap="round" stroke-linejoin="round"/>
<path d="M1.5 3.92821L1.96697 6.00165L1.66833 6.207L2.11358 6.51753L1.77692 6.75794L2.21674 7.12853L1.93982 7.31386L2.57512 8L5.4584 7.22369L7.5 5.63106L2.19502 2L1.5 3.92821Z" fill="#763E1A" stroke="#763E1A" stroke-width="0.25" stroke-linecap="round" stroke-linejoin="round"/>
<path d="M13.5965 7.87445L10.901 7L11.7132 8.36532L10.5 11L12.1041 10.9774H14.5L13.5965 7.87445Z" fill="#F5841F" stroke="#F5841F" stroke-width="0.25" stroke-linecap="round" stroke-linejoin="round"/>
<path d="M5.09847 7L2.39962 7.87445L1.5 10.9774H3.89391L5.5 11L4.28527 8.36532L5.09847 7Z" fill="#F5841F" stroke="#F5841F" stroke-width="0.25" stroke-linecap="round" stroke-linejoin="round"/>
<path d="M8.67785 8.88672L8.82654 6.03165L9.5 4H6.5L7.17346 6.03165L7.32215 8.88672L7.379 9.78318L7.38338 12H8.61662L8.621 9.78318L8.67785 8.88672Z" fill="#F5841F" stroke="#F5841F" stroke-width="0.25" stroke-linecap="round" stroke-linejoin="round"/>
</svg>
