<svg width="16" height="16" viewBox="0 0 16 16" fill="none" xmlns="http://www.w3.org/2000/svg">
<mask id="mask0_5_6813" style="mask-type:luminance" maskUnits="userSpaceOnUse" x="1" y="1" width="14" height="14">
<path fill-rule="evenodd" clip-rule="evenodd" d="M14.8372 6.72727H8.16279V9.43182H12.0047C11.6465 11.15 10.1488 12.1364 8.16279 12.1364C5.8186 12.1364 3.93023 10.2909 3.93023 8C3.93023 5.70909 5.8186 3.86364 8.16279 3.86364C9.17209 3.86364 10.0837 4.21364 10.8 4.78636L12.8837 2.75C11.614 1.66818 9.98605 1 8.16279 1C4.1907 1 1 4.11818 1 8C1 11.8818 4.1907 15 8.16279 15C11.7442 15 15 12.4545 15 8C15 7.58636 14.9349 7.14091 14.8372 6.72727Z" fill="white"/>
</mask>
<g mask="url(#mask0_5_6813)">
<path d="M0.348633 12.1364V3.86365L5.88352 8.00001L0.348633 12.1364Z" fill="#FBBC05"/>
</g>
<mask id="mask1_5_6813" style="mask-type:luminance" maskUnits="userSpaceOnUse" x="1" y="1" width="14" height="14">
<path fill-rule="evenodd" clip-rule="evenodd" d="M14.8372 6.72727H8.16279V9.43182H12.0047C11.6465 11.15 10.1488 12.1364 8.16279 12.1364C5.8186 12.1364 3.93023 10.2909 3.93023 8C3.93023 5.70909 5.8186 3.86364 8.16279 3.86364C9.17209 3.86364 10.0837 4.21364 10.8 4.78636L12.8837 2.75C11.614 1.66818 9.98605 1 8.16279 1C4.1907 1 1 4.11818 1 8C1 11.8818 4.1907 15 8.16279 15C11.7442 15 15 12.4545 15 8C15 7.58636 14.9349 7.14091 14.8372 6.72727Z" fill="white"/>
</mask>
<g mask="url(#mask1_5_6813)">
<path d="M0.348633 3.86365L5.88352 8.00001L8.16259 6.0591L15.9765 4.81819V0.363647H0.348633V3.86365Z" fill="#EA4335"/>
</g>
<mask id="mask2_5_6813" style="mask-type:luminance" maskUnits="userSpaceOnUse" x="1" y="1" width="14" height="14">
<path fill-rule="evenodd" clip-rule="evenodd" d="M14.8372 6.72727H8.16279V9.43182H12.0047C11.6465 11.15 10.1488 12.1364 8.16279 12.1364C5.8186 12.1364 3.93023 10.2909 3.93023 8C3.93023 5.70909 5.8186 3.86364 8.16279 3.86364C9.17209 3.86364 10.0837 4.21364 10.8 4.78636L12.8837 2.75C11.614 1.66818 9.98605 1 8.16279 1C4.1907 1 1 4.11818 1 8C1 11.8818 4.1907 15 8.16279 15C11.7442 15 15 12.4545 15 8C15 7.58636 14.9349 7.14091 14.8372 6.72727Z" fill="white"/>
</mask>
<g mask="url(#mask2_5_6813)">
<path d="M0.348633 12.1364L10.1161 4.81819L12.6882 5.13637L15.9765 0.363647V15.6364H0.348633V12.1364Z" fill="#34A853"/>
</g>
<mask id="mask3_5_6813" style="mask-type:luminance" maskUnits="userSpaceOnUse" x="1" y="1" width="14" height="14">
<path fill-rule="evenodd" clip-rule="evenodd" d="M14.8372 6.72727H8.16279V9.43182H12.0047C11.6465 11.15 10.1488 12.1364 8.16279 12.1364C5.8186 12.1364 3.93023 10.2909 3.93023 8C3.93023 5.70909 5.8186 3.86364 8.16279 3.86364C9.17209 3.86364 10.0837 4.21364 10.8 4.78636L12.8837 2.75C11.614 1.66818 9.98605 1 8.16279 1C4.1907 1 1 4.11818 1 8C1 11.8818 4.1907 15 8.16279 15C11.7442 15 15 12.4545 15 8C15 7.58636 14.9349 7.14091 14.8372 6.72727Z" fill="white"/>
</mask>
<g mask="url(#mask3_5_6813)">
<path d="M15.9764 15.6364L5.88338 8.00001L4.58105 7.04547L15.9764 3.86365V15.6364Z" fill="#4285F4"/>
</g>
</svg>
