<svg width="17" height="16" viewBox="0 0 17 16" fill="none" xmlns="http://www.w3.org/2000/svg">
<path d="M8.87498 0C9.85415 0.0208334 10.776 0.244791 11.6406 0.671873C12.5052 1.09896 13.1875 1.6875 13.6875 2.43749C14.2291 3.24999 14.5 4.16145 14.5 5.17186C14.5 6.18228 14.3333 7.1354 14 8.03123C13.625 9.0104 13.0937 9.78123 12.4062 10.3437C11.6354 10.9687 10.7291 11.2812 9.68748 11.2812C9.27082 11.2812 8.85415 11.1823 8.43749 10.9843C8.02082 10.7864 7.71874 10.5104 7.53124 10.1562L7.28124 11.1562C7.01041 12.2396 6.79166 12.9896 6.62499 13.4062C6.37499 13.9687 5.92708 14.6875 5.28124 15.5625L5.15624 15.625L5.06249 15.5312L5.03124 15.0625C4.96874 14.4791 4.93749 14.0416 4.93749 13.75C4.93749 13.125 5.04166 12.3125 5.24999 11.3125C5.37499 10.7291 5.58333 9.86456 5.87499 8.71873L6.24999 7.21873C6.04166 6.8229 5.93749 6.30207 5.93749 5.65624C5.93749 5.05207 6.09374 4.55207 6.40624 4.15624C6.67707 3.82291 7.01041 3.61457 7.40624 3.53124C7.80207 3.44791 8.14582 3.52083 8.43749 3.74999C8.72915 3.97916 8.87498 4.34374 8.87498 4.84374C8.87498 5.11457 8.83332 5.41665 8.74999 5.74999C8.70832 5.93749 8.61457 6.22915 8.46874 6.62498C8.3229 7.02082 8.22915 7.31248 8.18749 7.49998C8.10415 7.83331 8.06249 8.12498 8.06249 8.37498C8.06249 8.77081 8.20311 9.09894 8.48436 9.35935C8.76561 9.61977 9.10415 9.74998 9.49998 9.74998C10.1666 9.74998 10.7291 9.45831 11.1875 8.87498C11.5833 8.39581 11.875 7.74998 12.0625 6.93748C12.2291 6.27082 12.3125 5.61457 12.3125 4.96874C12.3125 3.88541 11.9739 3.04166 11.2969 2.43749C10.6198 1.83333 9.72915 1.53125 8.62499 1.53125C7.81249 1.53125 7.0677 1.71875 6.39062 2.09374C5.71353 2.46874 5.18749 2.97916 4.81249 3.62499C4.4375 4.27082 4.25 5.0104 4.25 5.84374C4.25 6.1979 4.3125 6.54165 4.4375 6.87498C4.5 7.06248 4.61458 7.29165 4.78124 7.56248C4.90624 7.77081 4.96874 7.90623 4.96874 7.96873C4.96874 8.1354 4.92708 8.34373 4.84374 8.59373C4.73958 8.90623 4.62499 9.06248 4.5 9.06248C4.22916 9.06248 3.9375 8.92185 3.625 8.6406C3.3125 8.35935 3.05208 7.97915 2.84375 7.49998C2.61458 6.93748 2.5 6.31249 2.5 5.62499C2.5 4.49999 2.8125 3.49999 3.4375 2.62499C4.02083 1.8125 4.80208 1.17187 5.78124 0.703123C6.76041 0.234374 7.79165 0 8.87498 0Z" fill="#EA0010"/>
</svg>
