<svg width="17" height="16" viewBox="0 0 17 16" fill="none" xmlns="http://www.w3.org/2000/svg">
<path d="M14.8437 5.24999C14.8645 5.33333 14.875 5.46874 14.875 5.65624C14.875 7.15624 14.5104 8.60415 13.7812 9.99998C13.0312 11.4791 11.9791 12.6562 10.625 13.5312C9.14581 14.5104 7.4479 15 5.53124 15C3.69791 15 2.02083 14.5104 0.5 13.5312C0.729166 13.5521 0.989582 13.5625 1.28125 13.5625C2.80208 13.5625 4.16666 13.0937 5.37499 12.1562C4.64582 12.1562 4.0052 11.9427 3.45312 11.5156C2.90104 11.0885 2.52083 10.5521 2.3125 9.90623C2.52083 9.92706 2.71874 9.93748 2.90624 9.93748C3.19791 9.93748 3.48958 9.90623 3.78124 9.84373C3.03124 9.67707 2.40625 9.29165 1.90625 8.68748C1.40625 8.08332 1.15625 7.39582 1.15625 6.62499V6.56249C1.61458 6.83332 2.10416 6.97915 2.62499 6.99999C2.1875 6.68749 1.83333 6.29166 1.5625 5.81249C1.29166 5.33333 1.15625 4.80728 1.15625 4.23437C1.15625 3.66145 1.3125 3.11458 1.625 2.59375C2.4375 3.61458 3.43228 4.42708 4.60936 5.03124C5.78645 5.63541 7.04165 5.96874 8.37498 6.03124C8.33331 5.78124 8.31248 5.53124 8.31248 5.28124C8.31248 4.69791 8.45831 4.15104 8.74998 3.64062C9.04165 3.13021 9.43748 2.72916 9.93748 2.4375C10.4375 2.14583 10.9791 2 11.5625 2C12.0416 2 12.4843 2.09375 12.8906 2.28125C13.2968 2.46875 13.6562 2.71875 13.9687 3.03125C14.7187 2.88541 15.4166 2.625 16.0625 2.25C15.8125 3.02083 15.3333 3.625 14.625 4.06249C15.25 3.97916 15.875 3.80208 16.5 3.53125C16.0416 4.19791 15.4895 4.77083 14.8437 5.24999Z" fill="#00A2F3"/>
</svg>
