<svg width="17" height="16" viewBox="0 0 17 16" fill="none" xmlns="http://www.w3.org/2000/svg">
<path d="M6.59038 1C5.88695 1.00052 5.31766 1.57044 5.31818 2.27273C5.31766 2.97501 5.88747 3.54494 6.5909 3.54545H7.86363V2.27325C7.86415 1.57096 7.29433 1.00104 6.59038 1C6.5909 1 6.5909 1 6.59038 1" fill="#36C5F0"/>
<path d="M6.49976 4.81812H2.86388C2.11007 4.81863 1.49944 5.38844 1.5 6.09058C1.49889 6.79272 2.10951 7.36253 2.86332 7.36357H6.49976C7.25357 7.36305 7.86419 6.79324 7.86364 6.0911C7.86419 5.38844 7.25357 4.81863 6.49976 4.81812Z" fill="#36C5F0"/>
<path d="M15.5 6.09058C15.5005 5.38844 14.9307 4.81863 14.2273 4.81812C13.5239 4.81863 12.954 5.38844 12.9546 6.09058V7.36357H14.2273C14.9307 7.36305 15.5005 6.79324 15.5 6.09058Z" fill="#2EB67D"/>
<path d="M11.6818 5.99972V2.36336C11.6823 1.61162 11.1129 1.00111 10.4093 1C9.70577 1.00056 9.13583 1.61106 9.13635 2.36336V5.99972C9.13531 6.75202 9.70525 7.36252 10.4088 7.36364C11.1124 7.36308 11.6823 6.75257 11.6818 5.99972Z" fill="#2EB67D"/>
<path d="M10.4091 15C11.1125 14.9995 11.6823 14.4296 11.6818 13.7273C11.6823 13.025 11.1125 12.4551 10.4091 12.4546H9.13635V13.7273C9.13583 14.4291 9.70565 14.999 10.4091 15Z" fill="#ECB22E"/>
<path d="M10.4997 11.1819H14.1361C14.8899 11.1814 15.5005 10.6116 15.5 9.90946C15.5011 9.20732 14.8905 8.63751 14.1367 8.63647H10.5002C9.74642 8.63699 9.1358 9.2068 9.13635 9.90894C9.1358 10.6116 9.74586 11.1814 10.4997 11.1819V11.1819Z" fill="#ECB22E"/>
<path d="M1.5 9.9092C1.49948 10.6115 2.0693 11.1814 2.77273 11.1819C3.47616 11.1814 4.04597 10.6115 4.04545 9.9092V8.63647H2.77273C2.0693 8.63699 1.49948 9.20692 1.5 9.9092Z" fill="#E01E5A"/>
<path d="M5.31818 9.9994V13.6361C5.31714 14.3884 5.88707 14.999 6.59064 15.0001C7.29422 14.9996 7.86415 14.389 7.86363 13.6366V10.0005C7.86467 9.24815 7.29474 8.63759 6.59116 8.63647C5.88707 8.63647 5.31766 9.24704 5.31818 9.9994C5.31818 9.9994 5.31818 9.99995 5.31818 9.9994" fill="#E01E5A"/>
</svg>
