<svg width="18" height="18" viewBox="0 0 18 18" fill="none" xmlns="http://www.w3.org/2000/svg">
<path d="M10.2438 18C9.03938 18 8.16225 17.6907 7.61107 17.0721C7.0606 16.4538 6.78501 15.7869 6.78501 15.0723C6.78501 14.8111 6.83293 14.5912 6.92902 14.4125C7.02281 14.2363 7.15882 14.0902 7.32316 13.9897C7.48963 13.8865 7.69448 13.8352 7.93808 13.8352C8.18157 13.8352 8.38619 13.8865 8.55289 13.9897C8.71936 14.0927 8.85076 14.2339 8.94673 14.4125C9.04282 14.5912 9.0908 14.8111 9.0908 15.0723C9.0908 15.3885 9.02042 15.646 8.87955 15.8455C8.73843 16.0448 8.57197 16.1752 8.37979 16.2374C8.54661 16.4845 8.80917 16.6597 9.16781 16.7628C9.52646 16.873 9.88511 16.9279 10.2438 16.9279C10.7433 16.9279 11.1948 16.7836 11.5985 16.495C12.0019 16.2061 12.2999 15.7802 12.4921 15.2167C12.6843 14.6531 12.7803 14.0138 12.7803 13.2989C12.7803 12.5224 12.6744 11.8589 12.4633 11.3093C12.2581 10.7526 11.9539 10.3402 11.5504 10.072C11.1592 9.80786 10.706 9.6685 10.2438 9.67019C9.93617 9.67019 9.55217 9.80762 9.0908 10.0826L8.24531 10.5362V10.0826L12.05 4.63926H6.78501V10.2885C6.78501 10.756 6.8811 11.1409 7.07328 11.4434C7.26546 11.7458 7.56001 11.8969 7.9574 11.8969C8.26439 11.8969 8.55929 11.787 8.84116 11.5668C9.12492 11.3448 9.37172 11.0731 9.57125 10.7632C9.59684 10.7009 9.62895 10.6563 9.66734 10.6288C9.70181 10.596 9.74613 10.5779 9.79222 10.5774C9.8626 10.5774 9.94577 10.6152 10.0421 10.6909C10.1318 10.8006 10.1766 10.9278 10.1766 11.0722C10.1656 11.1694 10.1494 11.2657 10.1284 11.361C9.91082 11.8833 9.60964 12.2818 9.22528 12.5567C8.85111 12.8284 8.40905 12.9721 7.9574 12.9692C6.81705 12.9692 6.02905 12.7285 5.59362 12.2477C5.1582 11.7663 4.94036 11.1132 4.94036 10.2888V4.63926H2.25V3.58752H4.94036V1.19603L4.32547 0.535681V0H6.11242L6.78475 0.370943V3.58752L13.7409 3.56707L14.4328 4.30922L10.167 8.88662C10.4253 8.7761 10.6972 8.70666 10.9741 8.68037C11.4352 8.68037 11.9539 8.83851 12.5305 9.15468C13.1134 9.46394 13.5617 9.89026 13.8754 10.4328C14.1893 10.969 14.391 11.4846 14.4808 11.9794C14.5769 12.4744 14.625 12.914 14.625 13.2989C14.625 14.1788 14.4519 14.9965 14.1062 15.7529C13.7603 16.5086 13.2351 17.0721 12.5305 17.4434C11.8259 17.8146 11.0635 18 10.2438 18Z" fill="#2C7DF7"/>
</svg>
