<svg width="22" height="22" viewBox="0 0 22 22" fill="none" xmlns="http://www.w3.org/2000/svg">
<path d="M19.7074 16.1457C19.2312 17.2004 19.0039 17.6711 18.3906 18.6029C17.5363 19.9041 16.3309 21.5247 14.8372 21.5385C13.5103 21.5509 13.1693 20.675 11.368 20.6855C9.56679 20.6961 9.19142 21.5541 7.86454 21.5417C6.37083 21.5284 5.22958 20.0649 4.37433 18.7628C1.98367 15.1236 1.73388 10.8534 3.20833 8.58323C4.25608 6.96898 5.90975 6.02573 7.46396 6.02573C9.04658 6.02573 10.0416 6.89335 11.3506 6.89335C12.6202 6.89335 13.3934 6.02435 15.2235 6.02435C16.6068 6.02435 18.0725 6.77739 19.1171 8.0786C15.6947 9.95364 16.2511 14.839 19.7074 16.1457Z" fill="white"/>
<path d="M14.0283 3.74734C14.6934 2.89393 15.1975 1.68989 15.0142 0.458344C13.928 0.532593 12.6584 1.22376 11.9168 2.12439C11.2435 2.94159 10.6875 4.15388 10.9039 5.33226C12.0887 5.36938 13.3156 4.66126 14.0283 3.74734Z" fill="white"/>
</svg>
