<svg width="162" height="60" viewBox="0 0 162 60" fill="none" xmlns="http://www.w3.org/2000/svg">
<path opacity="0.15" d="M9.90787 12.1005L10.2031 12.5041L10.4079 12.3542V12.1005H9.90787ZM1.57981 18.1929L1.28459 17.7894H1.28459L1.57981 18.1929ZM1.57981 19.8071L1.28459 20.2106H1.28459L1.57981 19.8071ZM9.90787 25.8995H10.4079V25.6458L10.2031 25.496L9.90787 25.8995ZM10.4079 8C10.4079 3.85786 13.7657 0.5 17.9079 0.5V-0.5C13.2135 -0.5 9.40787 3.30558 9.40787 8H10.4079ZM10.4079 12.1005V8H9.40787V12.1005H10.4079ZM1.87502 18.5965L10.2031 12.5041L9.61266 11.697L1.28459 17.7894L1.87502 18.5965ZM1.87502 19.4035C1.60197 19.2038 1.60197 18.7962 1.87502 18.5965L1.28459 17.7894C0.465448 18.3886 0.46545 19.6114 1.28459 20.2106L1.87502 19.4035ZM10.2031 25.496L1.87502 19.4035L1.28459 20.2106L9.61266 26.303L10.2031 25.496ZM10.4079 52V25.8995H9.40787V52H10.4079ZM17.9079 59.5C13.7657 59.5 10.4079 56.1421 10.4079 52H9.40787C9.40787 56.6944 13.2134 60.5 17.9079 60.5V59.5ZM154 59.5H17.9079V60.5H154V59.5ZM161.5 52C161.5 56.1421 158.142 59.5 154 59.5V60.5C158.694 60.5 162.5 56.6944 162.5 52H161.5ZM161.5 8V52H162.5V8H161.5ZM154 0.5C158.142 0.5 161.5 3.85786 161.5 8H162.5C162.5 3.30558 158.694 -0.5 154 -0.5V0.5ZM17.9079 0.5H154V-0.5H17.9079V0.5Z" fill="#CFDBD5"/>
</svg>
