<svg width="15" height="14" viewBox="0 0 15 14" fill="none" xmlns="http://www.w3.org/2000/svg">
<path fill-rule="evenodd" clip-rule="evenodd" d="M2.1875 3.37499C1.72916 3.37499 1.33333 3.20833 0.999999 2.87499C0.666666 2.54166 0.5 2.14583 0.5 1.6875C0.5 1.22916 0.666666 0.833331 0.999999 0.499999C1.33333 0.166666 1.72916 0 2.1875 0C2.64583 0 3.04166 0.166666 3.37499 0.499999C3.70833 0.833331 3.87499 1.22916 3.87499 1.6875C3.87499 2.14583 3.70833 2.54166 3.37499 2.87499C3.04166 3.20833 2.64583 3.37499 2.1875 3.37499ZM3.62499 14H0.718749V4.65624H3.62499V14ZM11.5937 14H14.5V8.87498C14.5 7.43748 14.2916 6.37498 13.875 5.68749C13.3333 4.83332 12.3854 4.40624 11.0312 4.40624C10.3646 4.40624 9.78123 4.57291 9.28123 4.90624C8.8229 5.17707 8.48956 5.52082 8.28123 5.93749H8.24998V4.65624H5.46874V14H8.34373V9.37498C8.34373 8.64581 8.4479 8.09373 8.65623 7.71873C8.92706 7.21873 9.39581 6.96873 10.0625 6.96873C10.7291 6.96873 11.1771 7.24998 11.4062 7.81248C11.5312 8.14581 11.5937 8.68748 11.5937 9.43748V14Z" fill="#017EB2"/>
</svg>
