<svg width="39" height="4" viewBox="0 0 39 4" fill="none" xmlns="http://www.w3.org/2000/svg">
<path d="M0.155635 3.7525C0.286019 3.90982 0.484094 4.00101 0.693201 3.99999H38.3087C38.517 3.99974 38.7142 3.90921 38.8454 3.75351C38.9766 3.59782 39.028 3.39353 38.9853 3.19732L38.4014 0.528428C38.3522 0.307291 38.19 0.125168 37.9704 0.0445829C37.8922 0.0150426 37.8088 -8.08594e-05 37.7248 3.3333e-07H1.27479C1.19074 -8.18719e-05 1.10742 0.0150416 1.02917 0.0445829C0.809581 0.125159 0.647356 0.307286 0.598197 0.528428L0.0142924 3.19732C-0.0277825 3.39342 0.0241295 3.59732 0.155635 3.7525Z" fill="#2F2E41"/>
</svg>
