<svg width="95" height="59" viewBox="0 0 95 59" fill="none" xmlns="http://www.w3.org/2000/svg">
<path d="M95 6.23834L92.6288 16.3331C92.8607 17.7956 92.9379 19.2782 92.8591 20.7567C91.7352 22.2548 90.5757 23.723 89.3805 25.1612C88.2785 26.4877 87.1473 27.7888 85.9868 29.0645C84.608 30.5844 83.188 32.0653 81.727 33.5072C77.9221 34.6948 73.4375 35.1796 68.75 35.2123C67.1327 35.2259 65.4907 35.1824 63.8432 35.0952C57.1628 34.7465 50.4057 33.6815 44.8712 32.5756C43.4074 32.2869 42.0313 31.9927 40.7648 31.7067C38.3662 31.1701 36.3597 30.6689 34.9068 30.2875C33.2703 29.8626 32.3383 29.5875 32.3383 29.5875L26.1129 39.9464L20.4605 49.3493L13.1771 58.586C12.4808 58.6486 11.7836 58.7013 11.0855 58.744C10.3454 58.7957 9.60436 58.8375 8.8624 58.8693C8.27578 58.8992 7.6919 58.921 7.10252 58.9374L6.90241 59L6.73794 58.9482L4.09539 58.112L3.20449 57.8315L0 56.8182C0 56.8182 0.71546 54.5791 1.9682 50.8447C2.42873 49.4746 5.69079 39.3444 9.10362 30.5C10.1151 27.8742 11.1623 25.2102 12.2396 22.5599C13.1222 20.3835 14.0214 18.2153 14.9314 16.077C16.5131 12.3698 24.1557 10.3705 33.1551 9.32178C33.6129 9.27003 34.0734 9.21827 34.5367 9.16924C39.1228 8.68984 43.9885 8.44197 48.5389 8.32756C50.8169 8.27036 53.0153 8.24857 55.0603 8.24585C55.7209 8.24585 56.3633 8.24766 56.9874 8.25129H56.9901C58.676 8.25947 60.2275 8.28398 61.5926 8.31122C61.8585 8.31667 62.1162 8.32484 62.3684 8.33029H62.3711C62.5411 8.33301 62.7083 8.33846 62.8728 8.34118C65.858 8.41745 67.6891 8.51006 67.6891 8.51006L68.3991 2.97513L68.5444 1.85834L68.6814 0.79602V0.793296L68.6979 0.659826L68.8103 0.657102L70.784 0.618968L87.3739 0.297549L94.4401 0L95 6.23834Z" fill="#2F2E41"/>
</svg>
