<svg width="231" height="231" viewBox="0 0 231 231" fill="none" xmlns="http://www.w3.org/2000/svg">
<path opacity="0.1" fill-rule="evenodd" clip-rule="evenodd" d="M231 115.5C231.015 128.645 228.782 141.695 224.396 154.087C224.394 154.095 224.391 154.101 224.388 154.109C224.369 154.166 224.35 154.219 224.328 154.276V154.279C223.392 156.907 222.364 159.492 221.244 162.032C218.418 168.438 215.015 174.574 211.077 180.364C210.122 181.774 209.134 183.161 208.111 184.526C206.986 186.035 205.826 187.513 204.63 188.962C203.527 190.298 202.395 191.608 201.233 192.893C199.853 194.424 198.432 195.916 196.97 197.368C193.528 200.795 189.874 204.002 186.029 206.97C185.354 207.494 184.672 208.009 183.982 208.515C182.377 209.7 180.741 210.843 179.072 211.944C175.401 214.371 171.593 216.584 167.667 218.572C166.989 218.918 166.306 219.258 165.62 219.587C162.967 220.868 160.261 222.047 157.5 223.124C156.712 223.434 155.922 223.733 155.124 224.021C154.989 224.073 154.855 224.122 154.718 224.169C145.251 227.586 135.376 229.742 125.346 230.583C124.649 230.646 123.952 230.699 123.253 230.742C122.512 230.794 121.771 230.836 121.028 230.868C120.441 230.898 119.857 230.92 119.267 230.937C119.146 230.942 119.023 230.948 118.902 230.948C118.109 230.973 117.313 230.988 116.515 230.995C116.178 230.997 115.84 231 115.5 231C115.341 231 115.182 231 115.023 230.997C112.721 230.989 110.436 230.914 108.169 230.772C108.123 230.77 108.076 230.764 108.03 230.764C107.217 230.709 106.408 230.652 105.602 230.58C102.729 230.339 99.8879 229.991 97.0776 229.538C96.4302 229.436 95.7845 229.326 95.1407 229.209C92.3451 228.715 89.5861 228.119 86.8637 227.423C86.0544 227.217 85.2496 227.002 84.4494 226.778C79.8312 225.493 75.2983 223.918 70.8775 222.065C68.3398 221 65.8497 219.85 63.4071 218.613C62.3069 218.056 61.2178 217.482 60.1396 216.89C59.846 216.731 59.5552 216.569 59.2644 216.408C57.141 215.222 55.0614 213.973 53.0258 212.66C51.3578 211.587 49.7208 210.472 48.115 209.313C47.9174 209.176 47.7227 209.033 47.5279 208.89C46.2961 207.993 45.0844 207.073 43.8928 206.13C41.3002 204.076 38.8 201.916 36.3922 199.653C34.7269 198.089 33.1101 196.476 31.5417 194.814C22.4034 185.149 15.0001 173.982 9.65707 161.802C8.52127 159.209 7.47876 156.569 6.52952 153.881C6.52644 153.875 6.52457 153.869 6.52403 153.862C2.19209 141.536 -0.0139674 128.565 6.65383e-05 115.5C6.65383e-05 67.0065 29.8874 25.4923 72.2465 8.37311C102.778 -3.91345 137.094 -2.62957 166.622 11.904C204.767 30.7598 231 70.0682 231 115.5Z" fill="#EBF0F0"/>
</svg>
