<svg width="104" height="82" viewBox="0 0 104 82" fill="none" xmlns="http://www.w3.org/2000/svg">
<path d="M36.0752 10.5311C38.6458 6.31083 41.6917 1.80484 46.462 0.426786C51.9863 -1.16907 57.6611 2.00116 62.4746 5.12952C76.8699 14.4854 90.7329 24.6246 104 35.5006L103.985 35.6644C93.6565 34.9573 83.3276 34.2502 72.9987 33.5432C65.536 33.0323 57.8169 32.451 51.222 28.9465C48.7195 27.6167 46.28 25.8404 43.4442 25.7166C39.921 25.5628 36.849 28.0054 34.4348 30.5574C20.1541 45.6529 16.0215 68.7375 0 82C10.1027 57.2677 22.1656 33.3698 36.0752 10.5311Z" fill="#F2F2F2"/>
</svg>
