<svg width="60" height="43" viewBox="0 0 60 43" fill="none" xmlns="http://www.w3.org/2000/svg">
<path d="M58.5073 38.0384C57.0402 40.2152 54.6917 41.7216 52.1626 42.468C51.1352 42.7712 50.0746 42.9498 49.0039 43C48.8717 41.7994 48.5551 40.626 48.0651 39.5204C48.1149 40.6972 47.9498 41.8732 47.5779 42.9919C45.9701 42.9015 44.3983 42.4839 42.9603 41.765C40.1547 40.3401 37.9951 37.615 37.5161 34.5235C36.9522 30.9136 38.6027 27.3689 39.1994 23.7644C39.7989 20.16 38.6739 15.5947 35.1156 14.6474C32.4058 13.9254 32.7097 14.2376 30.457 15.8959C32.8002 19.3316 24.1452 31.922 20.6032 30.8241C18.6007 30.2033 17.3186 28.3813 16.9053 28.3813C14.1216 33.1366 19.3633 41.1489 14.0806 42.8127L14.5158 42.3812C17.7046 38.4917 11.0396 30.2595 14.2284 26.3701C15.118 25.2817 16.065 23.9924 15.8023 22.6163C15.5532 21.3081 13.4592 20.6159 12.8461 21.6908C13.9492 19.1856 12.3206 15.8417 9.6245 15.1984C7.22949 14.6257 7.27328 15.3314 4.87006 15.6381C4.71299 14.6082 4.4194 13.6034 3.99691 12.6498C4.04101 13.6773 3.91998 14.7053 3.63834 15.6951C2.78937 15.6786 1.96962 15.3848 1.30629 14.8591C-0.653517 13.293 -0.25663 10.0034 1.49241 8.20931C3.24419 6.41522 5.84722 5.76924 8.32982 5.35125C9.05151 0.367752 22.9175 -0.152102 24.7555 4.82741C25.5383 1.10895 30.2325 -0.82085 33.8812 0.332688C37.5298 1.48622 40.0616 4.86541 41.3946 8.42645C42.7276 11.9848 43.0999 15.8145 43.921 19.5221C44.7422 23.2297 46.1299 27.0052 48.9875 29.5321C51.8451 32.0563 56.501 32.8923 59.5119 30.5472C60.4617 32.99 59.9717 35.8589 58.5073 38.0384Z" fill="#2F2E41"/>
</svg>
