<svg width="36" height="83" viewBox="0 0 36 83" fill="none" xmlns="http://www.w3.org/2000/svg">
<path d="M35.9914 26.3679C35.8803 15.3381 36.2081 18.5323 35.3248 14.7339C32.9525 4.52257 23.1054 2.66046 21.3887 2.42976C21.0191 1.45686 20.2575 0.679402 19.2858 0.283124C18.3141 -0.113154 17.2196 -0.0926627 16.2638 0.339704L12.9773 2.02478C9.79123 3.46667 11.7249 5.54974 10.6249 8.83726L9.46938 12.3253L0 38.2052L1.91665 48.0513L1.91943 48.0568L3.21109 54.6895L7.04096 59.0035L6.9694 58.3148L6.88329 58.4466L6.88052 58.4494L6.6583 58.7762C6.96663 58.9437 7.27218 59.1085 7.57218 59.2733C8.34995 59.6963 9.10828 60.111 9.84716 60.5175C10.0249 60.6163 10.1999 60.7125 10.3749 60.8113H10.3777C10.4888 60.8717 10.5999 60.9322 10.7083 60.9926C13.4805 62.5251 3.21943 65.3155 5.49997 66.6256C5.81664 66.8069 6.13052 66.9881 6.43885 67.1666C16.9388 73.2391 25.3165 80.8028 28.0248 83C29.2359 81.5499 30.4109 80.0695 31.5498 78.559C32.5831 77.194 33.584 75.8052 34.5525 74.3926C34.722 73.2885 34.8359 72.1844 34.947 71.1023C35.0803 69.8005 34.3859 57.7408 34.6192 56.4142C34.722 55.8265 34.3275 55.269 33.947 54.7307C33.5942 54.2281 33.2609 53.7557 33.3303 53.3107C33.4026 52.8521 33.9137 52.3522 34.4109 51.8661C34.9525 51.3333 35.5137 50.784 35.5942 50.2045C35.8164 48.5896 34.9025 46.9692 35.0748 45.3432C35.3581 42.6984 35.5757 40.0453 35.7275 37.384C35.9414 33.7092 36.0294 30.0372 35.9914 26.3679Z" fill="#F20089"/>
</svg>
