<svg width="295" height="295" viewBox="0 0 295 295" fill="none" xmlns="http://www.w3.org/2000/svg">
<g clip-path="url(#clip0_18_678)">
<path d="M184.375 106.016H175.156V129.062H184.375V106.016Z" fill="#9F8CFF"/>
<path d="M202.812 106.016H193.594V129.062H202.812V106.016Z" fill="#9F8CFF"/>
<path d="M184.375 138.281H175.156V147.5H184.375V138.281Z" fill="#9F8CFF"/>
<path d="M202.812 138.281H193.594V147.5H202.812V138.281Z" fill="#9F8CFF"/>
<path d="M152.109 156.719H142.891V165.938H152.109V156.719Z" fill="#9F8CFF"/>
<path d="M129.062 248.906H119.844V258.125H129.062V248.906Z" fill="#9F8CFF"/>
<path d="M202.812 156.719H193.594V165.938H202.812V156.719Z" fill="#9F8CFF"/>
<path d="M184.375 175.156H175.156V184.375H184.375V175.156Z" fill="#9F8CFF"/>
<path d="M202.812 175.156H193.594V184.375H202.812V175.156Z" fill="#9F8CFF"/>
<path d="M9.21875 9.21875H23.0469V0H4.60938C2.065 0 0 2.065 0 4.60938V23.0469H9.21875V9.21875Z" fill="#9F8CFF"/>
<path d="M290.391 0H271.953V9.21875H285.781V23.0469H295V4.60938C295 2.065 292.935 0 290.391 0Z" fill="#9F8CFF"/>
<path d="M9.21875 271.953H0V290.391C0 292.935 2.065 295 4.60938 295H23.0469V285.781H9.21875V271.953Z" fill="#9F8CFF"/>
<path d="M285.781 285.781H271.953V295H290.391C292.935 295 295 292.935 295 290.391V271.953H285.781V285.781Z" fill="#9F8CFF"/>
<path d="M18.4375 23.0469V78.3594C18.4375 80.9038 20.5025 82.9688 23.0469 82.9688H78.3594C80.9038 82.9688 82.9688 80.9038 82.9688 78.3594V23.0469C82.9688 20.5025 80.9038 18.4375 78.3594 18.4375H23.0469C20.5025 18.4375 18.4375 20.5025 18.4375 23.0469ZM27.6562 27.6562H73.75V73.75H27.6562V27.6562Z" fill="#9F8CFF"/>
<path d="M59.9219 36.875H41.4844C38.94 36.875 36.875 38.94 36.875 41.4844V59.9219C36.875 62.4662 38.94 64.5312 41.4844 64.5312H59.9219C62.4662 64.5312 64.5312 62.4662 64.5312 59.9219V41.4844C64.5312 38.94 62.4662 36.875 59.9219 36.875ZM55.3125 55.3125H46.0938V46.0938H55.3125V55.3125Z" fill="#9F8CFF"/>
<path d="M216.641 82.9688H271.953C274.498 82.9688 276.562 80.9038 276.562 78.3594V23.0469C276.562 20.5025 274.498 18.4375 271.953 18.4375H216.641C214.096 18.4375 212.031 20.5025 212.031 23.0469V78.3594C212.031 80.9038 214.096 82.9688 216.641 82.9688ZM221.25 27.6562H267.344V73.75H221.25V27.6562Z" fill="#9F8CFF"/>
<path d="M253.516 36.875H235.078C232.534 36.875 230.469 38.94 230.469 41.4844V59.9219C230.469 62.4662 232.534 64.5312 235.078 64.5312H253.516C256.06 64.5312 258.125 62.4662 258.125 59.9219V41.4844C258.125 38.94 256.06 36.875 253.516 36.875ZM248.906 55.3125H239.688V46.0938H248.906V55.3125Z" fill="#9F8CFF"/>
<path d="M78.3594 212.031H23.0469C20.5025 212.031 18.4375 214.096 18.4375 216.641V271.953C18.4375 274.498 20.5025 276.562 23.0469 276.562H78.3594C80.9038 276.562 82.9688 274.498 82.9688 271.953V216.641C82.9688 214.096 80.9038 212.031 78.3594 212.031ZM73.75 267.344H27.6562V221.25H73.75V267.344Z" fill="#9F8CFF"/>
<path d="M41.4844 258.125H59.9219C62.4662 258.125 64.5312 256.06 64.5312 253.516V235.078C64.5312 232.534 62.4662 230.469 59.9219 230.469H41.4844C38.94 230.469 36.875 232.534 36.875 235.078V253.516C36.875 256.06 38.94 258.125 41.4844 258.125ZM46.0938 239.688H55.3125V248.906H46.0938V239.688Z" fill="#9F8CFF"/>
<path d="M202.812 87.5781H170.547V32.2656H161.328V92.1875C161.328 94.7319 163.393 96.7969 165.938 96.7969H202.812V87.5781Z" fill="#9F8CFF"/>
<path d="M133.672 55.3125H101.406V64.5312H133.672V55.3125Z" fill="#9F8CFF"/>
<path d="M152.109 36.875H119.844V46.0938H152.109V36.875Z" fill="#9F8CFF"/>
<path d="M27.6562 87.5781H18.4375V129.062H27.6562V87.5781Z" fill="#9F8CFF"/>
<path d="M82.9688 115.234H36.875V124.453H78.3594V142.891H87.5781V119.844C87.5781 117.299 85.5131 115.234 82.9688 115.234Z" fill="#9F8CFF"/>
<path d="M50.7031 92.1875H41.4844V101.406H50.7031V92.1875Z" fill="#9F8CFF"/>
<path d="M106.016 82.9688H96.7969V119.844H106.016V82.9688Z" fill="#9F8CFF"/>
<path d="M138.281 129.062H96.7969V138.281H138.281V129.062Z" fill="#9F8CFF"/>
<path d="M281.172 133.672H271.953V179.766H258.125V188.984H276.562C279.107 188.984 281.172 186.919 281.172 184.375V133.672Z" fill="#9F8CFF"/>
<path d="M129.062 82.9688H119.844V92.1875H129.062V82.9688Z" fill="#9F8CFF"/>
<path d="M27.6562 152.109H18.4375V188.984H27.6562V152.109Z" fill="#9F8CFF"/>
<path d="M59.9219 193.594H18.4375V202.812H59.9219V193.594Z" fill="#9F8CFF"/>
<path d="M230.469 129.062H239.688V110.625C239.688 108.081 237.622 106.016 235.078 106.016H212.031V115.234H230.469V129.062Z" fill="#9F8CFF"/>
<path d="M50.7031 152.109H41.4844V161.328H50.7031V152.109Z" fill="#9F8CFF"/>
<path d="M101.406 147.5H92.1875V184.375H101.406V147.5Z" fill="#9F8CFF"/>
<path d="M133.672 193.594H92.1875V202.812H133.672V193.594Z" fill="#9F8CFF"/>
<path d="M78.3594 175.156H36.875V184.375H78.3594V175.156Z" fill="#9F8CFF"/>
<path d="M106.016 239.688H96.7969V258.125H106.016V239.688Z" fill="#9F8CFF"/>
<path d="M133.672 221.25H92.1875V230.469H133.672V221.25Z" fill="#9F8CFF"/>
<path d="M165.938 202.812V179.766C165.938 177.221 163.873 175.156 161.328 175.156H115.234V184.375H156.719V202.812H165.938Z" fill="#9F8CFF"/>
<path d="M129.062 147.5H119.844V156.719H129.062V147.5Z" fill="#9F8CFF"/>
<path d="M78.3594 156.719H69.1406V165.938H78.3594V156.719Z" fill="#9F8CFF"/>
<path d="M281.172 244.297H271.953V276.562H281.172V244.297Z" fill="#9F8CFF"/>
<path d="M262.734 267.344H248.906V276.562H262.734V267.344Z" fill="#9F8CFF"/>
<path d="M258.125 239.688H248.906V258.125H258.125V239.688Z" fill="#9F8CFF"/>
<path d="M281.172 202.812C281.172 200.268 279.107 198.203 276.562 198.203H225.859V207.422H271.953V235.078H281.172V202.812Z" fill="#9F8CFF"/>
<path d="M221.25 258.125V235.078C221.25 232.534 219.185 230.469 216.641 230.469H165.938V239.688H212.031V258.125H221.25Z" fill="#9F8CFF"/>
<path d="M262.734 216.641H230.469V225.859H262.734V216.641Z" fill="#9F8CFF"/>
<path d="M124.453 267.344H92.1875V276.562H124.453V267.344Z" fill="#9F8CFF"/>
<path d="M147.5 235.078H138.281V276.562H147.5V235.078Z" fill="#9F8CFF"/>
<path d="M165.938 212.031H147.5V221.25H165.938V212.031Z" fill="#9F8CFF"/>
<path d="M216.641 165.938H239.688V156.719H221.25V129.062H212.031V161.328C212.031 163.873 214.096 165.938 216.641 165.938Z" fill="#9F8CFF"/>
<path d="M253.516 138.281H230.469V147.5H253.516V138.281Z" fill="#9F8CFF"/>
<path d="M262.734 92.1875H248.906V101.406H262.734V92.1875Z" fill="#9F8CFF"/>
<path d="M281.172 92.1875H271.953V115.234H281.172V92.1875Z" fill="#9F8CFF"/>
<path d="M258.125 115.234H248.906V124.453H258.125V115.234Z" fill="#9F8CFF"/>
<path d="M179.766 78.3594H198.203C200.747 78.3594 202.812 76.2944 202.812 73.75V13.8281H193.594V69.1406H179.766V78.3594Z" fill="#9F8CFF"/>
<path d="M110.625 23.0469H179.766V13.8281H106.016C103.471 13.8281 101.406 15.8931 101.406 18.4375V41.4844H110.625V23.0469Z" fill="#9F8CFF"/>
<path d="M115.234 110.625H147.5C150.044 110.625 152.109 108.56 152.109 106.016V69.1406H142.891V101.406H115.234V110.625Z" fill="#9F8CFF"/>
<path d="M165.938 106.016H156.719V124.453H165.938V106.016Z" fill="#9F8CFF"/>
<path d="M198.203 248.906H165.938V258.125H198.203V248.906Z" fill="#9F8CFF"/>
<path d="M207.422 267.344H165.938V276.562H207.422V267.344Z" fill="#9F8CFF"/>
<path d="M230.469 267.344H221.25V276.562H235.078C237.622 276.562 239.688 274.498 239.688 271.953V235.078H230.469V267.344Z" fill="#9F8CFF"/>
<path d="M82.9688 193.594H73.75V202.812H82.9688V193.594Z" fill="#9F8CFF"/>
<path d="M198.203 193.594H179.766V202.812H198.203V193.594Z" fill="#9F8CFF"/>
<path d="M221.25 175.156H212.031V188.984H221.25V175.156Z" fill="#9F8CFF"/>
<path d="M216.641 198.203H207.422V207.422H216.641V198.203Z" fill="#9F8CFF"/>
<path d="M193.594 212.031H179.766V221.25H193.594V212.031Z" fill="#9F8CFF"/>
<path d="M239.688 175.156H230.469V184.375H239.688V175.156Z" fill="#9F8CFF"/>
<path d="M262.734 156.719H248.906V165.938H262.734V156.719Z" fill="#9F8CFF"/>
<path d="M184.375 156.719H161.328V165.938H184.375V156.719Z" fill="#9F8CFF"/>
<path d="M165.938 133.672H156.719V147.5H165.938V133.672Z" fill="#9F8CFF"/>
</g>
<defs>
<clipPath id="clip0_18_678">
<rect width="295" height="295" fill="white"/>
</clipPath>
</defs>
</svg>
