<svg width="388" height="208" viewBox="0 0 388 208" fill="none" xmlns="http://www.w3.org/2000/svg">
<path d="M0.5 15C0.5 6.99187 6.99187 0.5 15 0.5H287.306C295.387 0.5 301.909 7.10573 301.805 15.1859L301.19 63.1859C301.088 71.1208 294.627 77.5 286.691 77.5H281.345C272.647 77.5 265.651 84.6561 265.849 93.3522L266.167 107.352C266.358 115.773 273.24 122.5 281.663 122.5H373C381.008 122.5 387.5 128.992 387.5 137V193C387.5 201.008 381.008 207.5 373 207.5H15C6.99188 207.5 0.5 201.008 0.5 193V15Z" fill="#9F8CFF" stroke="black"/>
</svg>
