<svg width="20" height="20" viewBox="0 0 20 20" fill="none" xmlns="http://www.w3.org/2000/svg">
<path fill-rule="evenodd" clip-rule="evenodd" d="M14.2521 4.65275C13.466 4.65275 12.8288 5.29113 12.8288 6.07865V7.21954H17.4545V11.5686H12.7576L12.7576 7.25504H8.55893V11.5686H12.7576V13.4223C12.7576 16.848 9.98571 19.625 6.5663 19.625C3.14697 19.625 0.375 16.848 0.375 13.4223C0.375 9.99663 3.14697 7.21954 6.5663 7.21954H8.55893V6.07865C8.55893 2.92866 11.1078 0.375 14.2521 0.375H19.625V4.65275H14.2521ZM4.64488 13.4223C4.64488 12.3591 5.50517 11.4973 6.5663 11.4973H8.48781V13.4223C8.48781 14.4854 7.62751 15.3472 6.5663 15.3472C5.50517 15.3472 4.64488 14.4854 4.64488 13.4223Z" fill="#03DB80"/>
</svg>
