<svg width="17" height="18" viewBox="0 0 17 18" fill="none" xmlns="http://www.w3.org/2000/svg">
<path fill-rule="evenodd" clip-rule="evenodd" d="M3.63997 17.9997C2.89478 18.0133 2.22592 17.5348 1.98382 16.8149L0.0870612 2.58318C-0.0683545 2.10572 -0.0139434 1.58293 0.236277 1.14951C0.486496 0.716083 0.908058 0.414406 1.39235 0.322198C1.48096 0.302892 1.57105 0.291469 1.66159 0.288056L12.5767 0.000177544C13.0719 -0.00489798 13.5461 0.204078 13.8822 0.575502C14.035 0.542151 14.1909 0.525591 14.3472 0.526103C15.776 0.489471 16.9633 1.64275 16.9992 3.10203C17.035 4.5613 15.9059 5.77397 14.4771 5.8106C14.0861 5.81861 13.6982 5.73722 13.342 5.57238L12.3378 16.5392C12.1395 17.2796 11.4873 17.7983 10.7359 17.8132L3.63997 17.9997ZM14.2624 2.21438L13.5479 4.82775C13.8243 4.98604 14.1378 5.06433 14.4545 5.05422C15.4744 5.02697 16.2805 4.16188 16.2566 3.12008C16.2327 2.07828 15.3879 1.25268 14.3678 1.27422C14.3505 1.27426 14.3342 1.27848 14.3178 1.2827C14.3015 1.28692 14.2852 1.29114 14.2679 1.29118C14.3456 1.59405 14.3437 1.91249 14.2624 2.21438Z" fill="#2F2E41"/>
</svg>
