<svg width="121" height="156" viewBox="0 0 121 156" fill="none" xmlns="http://www.w3.org/2000/svg">
<path fill-rule="evenodd" clip-rule="evenodd" d="M119.058 14.8134L119.058 14.8138L119.058 14.8139C119.224 14.9189 119.39 15.0243 119.555 15.1336C120.039 15.4454 120.521 15.7628 121 16.0856V156H88.8097L89.3849 148.08L92.55 61.3741H28.8106L31.9757 148.08L32.5509 156H0V18.6188C0.597239 18.1811 1.19723 17.7488 1.80548 17.3248L1.88793 17.2676C1.9798 17.2037 2.07291 17.139 2.16602 17.0759C9.16698 12.2077 16.7405 8.20865 24.718 5.16763L26.4326 28.7024H37.4774V1.22557C38.1985 1.04776 38.9196 0.880882 39.6462 0.724951V0.724978C39.6462 16.1765 52.2481 28.7024 67.7934 28.7024H81.3538V0C82.0777 0.131311 82.8015 0.270829 83.5198 0.418553V28.7024H94.9307L96.7307 4.02139C104.493 6.69661 111.912 10.2712 118.834 14.6712C118.908 14.7188 118.983 14.7661 119.058 14.8134ZM28.2876 54.1931H37.4774V30.858H26.5895L28.2876 54.1931ZM81.3538 54.1931H65.9192V53.7307C65.9192 53.2819 65.7396 52.8514 65.4201 52.5343C65.1005 52.2172 64.6671 52.0394 64.2155 52.0401H57.5056C57.0544 52.0399 56.6217 52.218 56.3027 52.5351C55.9836 52.8522 55.8045 53.2823 55.8047 53.7307V54.1931H39.6462V30.858H81.3538V54.1931ZM83.5198 30.858V54.1931H93.0757L94.7738 30.858H83.5198Z" fill="#3F3D56"/>
</svg>
