<svg width="26" height="20" viewBox="0 0 26 20" fill="none" xmlns="http://www.w3.org/2000/svg">
<path d="M21.5963 1.59336C19.9213 0.838278 18.153 0.302596 16.3366 0C16.088 0.43751 15.8631 0.887649 15.6628 1.34853C13.728 1.06146 11.7604 1.06146 9.82561 1.34853C9.6252 0.887696 9.4003 0.437562 9.15185 0C7.33428 0.305152 5.56482 0.842105 3.88812 1.59731C0.55944 6.4465 -0.342914 11.1753 0.108263 15.8369C2.05762 17.255 4.23951 18.3335 6.55909 19.0256C7.08139 18.3339 7.54356 17.6001 7.94069 16.832C7.18639 16.5546 6.45836 16.2124 5.76502 15.8092C5.94749 15.6789 6.12596 15.5447 6.29841 15.4143C10.3831 17.3057 15.1114 17.3057 19.196 15.4143C19.3705 15.5545 19.549 15.6888 19.7294 15.8092C19.0348 16.213 18.3054 16.5559 17.5498 16.834C17.9464 17.6017 18.4086 18.3349 18.9314 19.0256C21.2529 18.3363 23.4365 17.2583 25.3862 15.8389C25.9156 10.4329 24.4818 5.74756 21.5963 1.59336ZM8.51218 12.97C7.2549 12.97 6.21619 11.8466 6.21619 10.4645C6.21619 9.08236 7.21881 7.94904 8.50817 7.94904C9.79753 7.94904 10.8282 9.08236 10.8062 10.4645C10.7841 11.8466 9.79352 12.97 8.51218 12.97ZM16.9823 12.97C15.723 12.97 14.6883 11.8466 14.6883 10.4645C14.6883 9.08236 15.6909 7.94904 16.9823 7.94904C18.2736 7.94904 19.2963 9.08236 19.2742 10.4645C19.2522 11.8466 18.2636 12.97 16.9823 12.97Z" fill="black"/>
</svg>
