<svg width="16" height="16" viewBox="0 0 16 16" fill="none" xmlns="http://www.w3.org/2000/svg">
<path fill-rule="evenodd" clip-rule="evenodd" d="M16 8C16 12.4183 12.4183 16 8 16C3.58172 16 0 12.4183 0 8C0 3.58172 3.58172 0 8 0C12.4183 0 16 3.58172 16 8ZM12.6667 8C12.6667 10.5773 10.5773 12.6667 8 12.6667C5.42267 12.6667 3.33333 10.5773 3.33333 8C3.33333 5.42267 5.42267 3.33333 8 3.33333C10.5773 3.33333 12.6667 5.42267 12.6667 8ZM7.16667 6.5C6.79847 6.5 6.5 6.79847 6.5 7.16667V8.83333C6.5 9.20153 6.79847 9.5 7.16667 9.5H8.83333C9.20153 9.5 9.5 9.20153 9.5 8.83333V7.16667C9.5 6.79847 9.20153 6.5 8.83333 6.5H7.16667Z" fill="#2D65F8"/>
</svg>
