<svg width="31" height="51" viewBox="0 0 31 51" fill="none" xmlns="http://www.w3.org/2000/svg">
<path fill-rule="evenodd" clip-rule="evenodd" d="M17.1522 32.2977C17.2855 31.138 17.4698 29.9857 17.7051 28.8407C18.9908 22.632 21.7503 16.8126 25.757 11.86C28.0493 11.9861 30.0581 11.6407 30.2498 7.25983C30.2695 6.83622 30.452 6.44263 30.6349 6.04817C30.7882 5.71763 30.9417 5.38647 31 5.0365C30.7833 5.06666 30.5582 5.08311 30.3415 5.09681C30.3056 5.09823 30.269 5.10037 30.2328 5.1025C30.1989 5.10449 30.1654 5.10645 30.1331 5.10778H30.1081C29.6166 5.13049 29.1575 4.86596 28.936 4.43243C28.7145 3.99889 28.772 3.47739 29.0829 3.10102C29.1773 2.98862 29.2718 2.87348 29.3663 2.75834C29.4607 2.63954 29.5577 2.52318 29.6546 2.40682C29.7031 2.34864 29.7515 2.29046 29.7997 2.23198C29.808 2.22238 29.8157 2.21347 29.8233 2.20456C29.831 2.19565 29.8386 2.18674 29.8469 2.17715C30.0109 1.97702 30.1748 1.77689 30.3415 1.57676C30.0403 1.11541 29.6353 0.728878 29.1579 0.447279C27.5047 -0.509495 25.2236 0.153941 24.0288 1.62885C22.8313 3.10376 22.6035 5.17632 23.0203 7.01858C23.3759 8.59767 24.1511 10.0452 25.0208 11.4214C24.9819 11.4705 24.942 11.5191 24.902 11.5678L24.9019 11.5679L24.9019 11.5679C24.8503 11.6307 24.7985 11.6938 24.7485 11.7586C23.1098 13.8384 21.6814 16.0715 20.4835 18.4258C20.8225 15.8132 16.6798 6.38255 15.0767 4.38402C13.1512 1.98523 9.20577 3.03247 8.8668 6.0755C8.86551 6.08818 8.86363 6.10145 8.86171 6.11503C8.85947 6.13081 8.85718 6.14702 8.85568 6.16323C9.09463 6.29482 9.32802 6.43464 9.55585 6.58542C10.1416 6.97166 10.4271 7.67309 10.2746 8.35179C10.1222 9.03049 9.56312 9.54725 8.8668 9.65312L8.83068 9.65861C5.64656 14.1464 15.8574 25.8278 18.4164 23.207C17.773 24.9907 17.2595 26.8175 16.8799 28.6734C16.5391 30.3105 16.3016 31.9667 16.1686 33.6328C16.0065 35.731 16.0167 37.8388 16.1991 39.9354C16.1941 39.911 16.1904 39.8862 16.188 39.8614C15.6185 35.2941 5.8744 28.5035 3.02925 29.0682C2.75837 29.1221 2.48816 29.1651 2.22694 29.2067L2.22691 29.2067C0.907347 29.4166 -0.182999 29.59 0.0257395 30.9516C0.0271287 30.9653 0.0292126 30.9783 0.0312964 30.9914C0.0333803 31.0044 0.0354641 31.0174 0.0368533 31.0311C0.478687 31.2071 0.90841 31.4113 1.32328 31.6425C1.56223 31.7741 1.79562 31.9166 2.02345 32.0646C2.57031 32.4255 2.85898 33.0639 2.76594 33.7065C2.67291 34.3491 2.21464 34.8821 1.58725 35.0775C2.79588 36.0178 4.02303 36.9372 5.26871 37.8354C5.46598 37.978 5.66325 38.1206 5.86328 38.2576C7.48869 39.4145 9.14651 40.5294 10.8367 41.6022C12.8983 42.9127 15.0044 44.1609 17.1549 45.3471L17.1552 45.3472L17.1554 45.3473C17.4497 45.509 17.7441 45.6706 18.0413 45.8296C17.2938 42.795 16.9151 39.6835 16.9132 36.5607C16.9125 35.1364 16.9923 33.7132 17.1522 32.2977ZM16.4575 42.2163L16.3714 42.0272C16.3742 41.8874 16.3742 41.7503 16.3714 41.6077C16.3714 41.5885 16.3693 41.5694 16.3672 41.5502C16.3652 41.531 16.3631 41.5118 16.3631 41.4926C16.3764 41.5902 16.3889 41.6878 16.4013 41.7854C16.42 41.9318 16.4387 42.0782 16.4603 42.2246L16.4575 42.2163ZM29.2621 42.4192C29.2482 42.4726 29.2343 42.5261 29.219 42.5892C28.8306 42.9439 28.7082 43.5002 28.9125 43.9819C29.1169 44.4636 29.6044 44.768 30.1331 44.744C30.4542 46.0258 30.6184 47.3411 30.6221 48.6615C30.6221 48.7493 30.6221 48.8397 30.6194 48.9302C30.4019 49.1972 30.1825 49.4624 29.9629 49.7279C29.8038 49.9203 29.6445 50.1129 29.4857 50.3064C29.4718 50.3256 29.458 50.342 29.4413 50.3612C29.3726 50.4451 29.3035 50.5286 29.2345 50.612C29.1276 50.7411 29.0208 50.8701 28.9162 51C26.3452 49.9345 23.8232 48.7849 21.3504 47.5512C23.462 44.3793 28.3466 39.9957 29.2718 42.1697C29.2829 42.1944 29.294 42.2218 29.3051 42.2492C29.2899 42.3123 29.276 42.3657 29.2621 42.4192Z" fill="white"/>
</svg>
