<svg width="15" height="14" viewBox="0 0 15 14" fill="none" xmlns="http://www.w3.org/2000/svg">
<path fill-rule="evenodd" clip-rule="evenodd" d="M10.5924 3.11109C10.0207 3.11109 9.55732 3.57537 9.55732 4.14811V4.97785H12.9214V8.14077H9.50554V5.00367H6.45195V8.14077H9.50554V9.48892C9.50554 11.9804 7.48961 14 5.00277 14C2.51598 14 0.5 11.9804 0.5 9.48892C0.5 6.99755 2.51598 4.97785 5.00277 4.97785H6.45195V4.14811C6.45195 1.85721 8.30568 0 10.5924 0H14.5V3.11109H10.5924ZM3.60537 9.48892C3.60537 8.71571 4.23104 8.08895 5.00277 8.08895H6.40022V9.48892C6.40022 10.2621 5.77456 10.8889 5.00277 10.8889C4.23104 10.8889 3.60537 10.2621 3.60537 9.48892Z" fill="#03DB80"/>
</svg>
