<svg width="16" height="16" viewBox="0 0 16 16" fill="none" xmlns="http://www.w3.org/2000/svg">
<path fill-rule="evenodd" clip-rule="evenodd" d="M11.479 3.62498C10.8358 3.62498 10.3145 4.14729 10.3145 4.79162V5.72508H14.0991V9.28336H10.2562V5.75413H6.82094V9.28336L10.2562 9.28336V10.8C10.2562 13.6029 7.98831 15.875 5.19061 15.875C2.39298 15.875 0.125 13.6029 0.125 10.8C0.125 7.99725 2.39298 5.72508 5.19061 5.72508H6.82094V4.79162C6.82094 2.21436 8.90639 0.125 11.479 0.125H15.875V3.62498H11.479ZM3.61854 10.8C3.61854 9.93017 4.32241 9.22507 5.19061 9.22507H6.76275V10.8C6.76275 11.6699 6.05888 12.375 5.19061 12.375C4.32241 12.375 3.61854 11.6699 3.61854 10.8Z" fill="#03DB80"/>
</svg>
