<svg width="20" height="20" viewBox="0 0 20 20" fill="none" xmlns="http://www.w3.org/2000/svg">
<path fill-rule="evenodd" clip-rule="evenodd" d="M10 20C15.5228 20 20 15.5228 20 10C20 4.47715 15.5228 0 10 0C4.47715 0 0 4.47715 0 10C0 15.5228 4.47715 20 10 20ZM10.5752 8.09355C10.6208 8.00447 10.6446 7.90577 10.6445 7.80565L10.6445 7.80526C10.6445 7.63455 10.5767 7.47083 10.456 7.35013C10.3352 7.22942 10.1715 7.1616 10.0008 7.1616C9.83011 7.1616 9.66639 7.22942 9.54568 7.35013C9.42498 7.47083 9.35716 7.63455 9.35716 7.80526C9.35715 7.9056 9.38097 8.00454 9.42665 8.09388L9.42691 8.0944C9.43808 8.11634 9.45035 8.1377 9.46367 8.15839C9.52196 8.24747 9.60151 8.32066 9.69513 8.37136C9.789 8.4222 9.89407 8.44882 10.0008 8.44882C10.1076 8.44882 10.2126 8.4222 10.3065 8.37136C10.4004 8.32053 10.4801 8.24709 10.5384 8.15769L10.5389 8.15704C10.5516 8.1376 10.5632 8.11741 10.5736 8.09659L10.5752 8.09355ZM12.4727 7.44787L14.9338 6.0267L14.0071 4.42149L11.5428 5.84419C11.356 5.69638 11.149 5.57625 10.9279 5.48752V3.54839H9.07404V5.48748C8.85297 5.57632 8.64581 5.69647 8.45893 5.84424L5.99463 4.42153L5.06738 6.02668L7.52927 7.44806C7.5122 7.56629 7.50361 7.68565 7.5036 7.80523C7.50361 8.02303 7.53233 8.23946 7.58869 8.44892H4.83953V10.3025H15.1621V8.44892H12.4131C12.4695 8.23951 12.4983 8.02316 12.4984 7.80539C12.4984 7.68576 12.4898 7.56615 12.4727 7.44787ZM9.0737 17.4893V13.2551H4.83953V11.4012H15.1618V13.2551H10.9276V17.4893H9.0737Z" fill="black"/>
</svg>
