<svg width="26" height="27" viewBox="0 0 26 27" fill="none" xmlns="http://www.w3.org/2000/svg">
<path fill-rule="evenodd" clip-rule="evenodd" d="M26 13.1238C26 20.3719 20.1797 26.2476 13 26.2476C5.82029 26.2476 0 20.3719 0 13.1238C0 5.87575 5.82029 0 13 0C20.1797 0 26 5.87575 26 13.1238ZM16.4108 9.2181H20.5396V5.51194H16.4108C15.0727 5.51333 13.7899 6.05051 12.8438 7.00568C11.8977 7.96079 11.3655 9.25584 11.3642 10.6066V11.0712H15.0328V10.6066C15.0335 10.2381 15.179 9.88494 15.4373 9.6246C15.6956 9.3643 16.0457 9.2181 16.4108 9.2181ZM11.1322 16.9388C11.2837 16.71 11.3645 16.4411 11.3645 16.166V14.7749H15.0331V16.166C15.0331 17.1736 14.7371 18.1586 14.1826 18.9964C13.6281 19.8342 12.8399 20.4872 11.9177 20.8728C10.9956 21.2584 9.98087 21.3593 9.00193 21.1627C8.02299 20.9662 7.12379 20.4809 6.41803 19.7684C5.71221 19.0559 5.23159 18.1482 5.03686 17.1599C4.84213 16.1716 4.94207 15.1472 5.32405 14.2163C5.70602 13.2854 6.35285 12.4897 7.18277 11.9299C8.01264 11.3701 8.98836 11.0713 9.98652 11.0713H11.3645V14.7749H9.98652C9.71394 14.7749 9.44755 14.8564 9.22093 15.0093C8.9943 15.1621 8.8177 15.3794 8.71341 15.6336C8.60911 15.8878 8.58182 16.1675 8.63496 16.4374C8.68815 16.7072 8.81939 16.9551 9.01208 17.1496C9.20483 17.3442 9.45037 17.4767 9.71765 17.5304C9.98498 17.584 10.262 17.5565 10.5138 17.4512C10.7656 17.3459 10.9809 17.1676 11.1322 16.9388ZM15.0331 11.0713H18.7043V14.7775H15.0331V11.0713Z" fill="white"/>
</svg>
