<svg width="22" height="23" viewBox="0 0 22 23" fill="none" xmlns="http://www.w3.org/2000/svg">
<path fill-rule="evenodd" clip-rule="evenodd" d="M22 11.1048C22 17.2377 17.0751 22.2095 11 22.2095C4.92486 22.2095 0 17.2377 0 11.1048C0 4.97179 4.92486 0 11 0C17.0751 0 22 4.97179 22 11.1048ZM13.887 7.79963H17.3806V4.66364H13.887C12.7548 4.66482 11.6694 5.11936 10.8688 5.92758C10.0682 6.73575 9.61795 7.83156 9.61682 8.97451V9.36762H12.721V8.97451C12.7216 8.6627 12.8447 8.36388 13.0633 8.14358C13.2819 7.92333 13.5781 7.79963 13.887 7.79963ZM9.41994 14.3332C9.54808 14.1396 9.61647 13.912 9.61647 13.6792V12.5021H12.7203V9.36834H15.8267V12.5043H12.7207V13.6792C12.7207 14.5318 12.4702 15.3652 12.001 16.0742C11.5318 16.7831 10.8649 17.3356 10.0846 17.6619C9.30432 17.9882 8.44569 18.0735 7.61736 17.9072C6.78903 17.7409 6.02816 17.3303 5.43098 16.7274C4.83375 16.1246 4.42707 15.3564 4.2623 14.5202C4.09753 13.684 4.1821 12.8172 4.5053 12.0295C4.82851 11.2418 5.37583 10.5685 6.07807 10.0948C6.78027 9.62115 7.60588 9.36834 8.45047 9.36834H9.61647V12.5021H8.45047C8.21983 12.5021 7.99442 12.5711 7.80266 12.7005C7.61091 12.8298 7.46148 13.0136 7.37322 13.2287C7.28497 13.4438 7.26188 13.6805 7.30685 13.9088C7.35185 14.1372 7.4629 14.3469 7.62595 14.5115C7.78904 14.6762 7.99681 14.7883 8.22297 14.8337C8.44917 14.8791 8.68359 14.8558 8.89667 14.7667C9.10972 14.6776 9.29183 14.5267 9.41994 14.3332Z" fill="white"/>
</svg>
