<svg width="18" height="19" viewBox="0 0 18 19" fill="none" xmlns="http://www.w3.org/2000/svg">
<path fill-rule="evenodd" clip-rule="evenodd" d="M18 9.08571C18 14.1036 13.9706 18.1714 9 18.1714C4.02943 18.1714 0 14.1036 0 9.08571C0 4.06783 4.02943 0 9 0C13.9706 0 18 4.06783 18 9.08571ZM11.36 6.38124H14.2184V3.81544H11.36C10.4337 3.8164 9.54556 4.18829 8.89056 4.84956C8.23554 5.5108 7.86714 6.40737 7.86621 7.34251V7.66414H10.406V7.34251C10.4065 7.08739 10.5072 6.8429 10.686 6.66266C10.8649 6.48245 11.1073 6.38124 11.36 6.38124ZM7.70504 11.7268C7.80989 11.5684 7.86584 11.3822 7.86584 11.1918V10.2287H10.4056V11.1918C10.4056 11.8893 10.2007 12.5713 9.8168 13.1513C9.4329 13.7313 8.88724 14.1834 8.24885 14.4504C7.61045 14.7173 6.90793 14.7871 6.2302 14.6511C5.55248 14.515 4.92995 14.1791 4.44135 13.6858C3.95271 13.1925 3.61996 12.5641 3.48515 11.8799C3.35035 11.1957 3.41953 10.4865 3.68398 9.84201C3.94842 9.19751 4.39623 8.64668 4.97079 8.25911C5.54531 7.87154 6.22081 7.6647 6.91184 7.6647H7.86584V10.2287H6.91184C6.72313 10.2287 6.53871 10.2852 6.38182 10.391C6.22492 10.4968 6.10266 10.6472 6.03046 10.8232C5.95825 10.9992 5.93936 11.1928 5.97615 11.3797C6.01297 11.5665 6.10383 11.7381 6.23723 11.8728C6.37067 12.0075 6.54066 12.0992 6.7257 12.1363C6.91078 12.1735 7.10257 12.1544 7.27691 12.0815C7.45122 12.0086 7.60023 11.8852 7.70504 11.7268ZM10.4076 7.6647H12.9492V10.2305H10.4076V7.6647Z" fill="black"/>
</svg>
