<svg width="20" height="21" viewBox="0 0 20 21" fill="none" xmlns="http://www.w3.org/2000/svg">
<path fill-rule="evenodd" clip-rule="evenodd" d="M20 10.0952C20 15.6707 15.5229 20.1905 10 20.1905C4.47714 20.1905 0 15.6707 0 10.0952C0 4.51981 4.47714 0 10 0C15.5229 0 20 4.51981 20 10.0952ZM12.6242 7.09089H15.8002V4.23999H12.6242C11.5949 4.24106 10.6081 4.65428 9.88036 5.38902C9.15255 6.12372 8.74322 7.11991 8.74219 8.15896V8.51633H11.5642V8.15896C11.5647 7.87549 11.6766 7.60384 11.8753 7.40357C12.0741 7.20334 12.3434 7.09089 12.6242 7.09089ZM8.56316 13.0298C8.67965 12.8538 8.74183 12.6469 8.74183 12.4353V11.3652H11.5635V8.51636H14.3875V11.3673H11.5638V12.4353C11.5638 13.2104 11.3362 13.9681 10.9096 14.6126C10.483 15.257 9.87672 15.7594 9.16739 16.056C8.45805 16.3526 7.67748 16.4302 6.92445 16.279C6.17143 16.1278 5.47973 15.7545 4.93684 15.2065C4.3939 14.6584 4.02419 13.9601 3.8744 13.1999C3.72461 12.4397 3.80149 11.6517 4.09531 10.9356C4.38914 10.2195 4.8867 9.60744 5.5251 9.17682C6.16346 8.74619 6.91402 8.51636 7.68183 8.51636H8.74183V11.3652H7.68183C7.47215 11.3652 7.26723 11.428 7.09291 11.5456C6.91859 11.6631 6.78274 11.8303 6.70251 12.0258C6.62228 12.2213 6.60129 12.4365 6.64217 12.6441C6.68308 12.8517 6.78404 13.0423 6.93226 13.192C7.08053 13.3417 7.26941 13.4436 7.47501 13.4849C7.68064 13.5261 7.89375 13.505 8.08746 13.4239C8.28114 13.3429 8.4467 13.2058 8.56316 13.0298Z" fill="white"/>
</svg>
