<svg width="120" height="30" viewBox="0 0 120 30" fill="none" xmlns="http://www.w3.org/2000/svg">
<path fill-rule="evenodd" clip-rule="evenodd" d="M0 23.1528V11.8433C0 8.50717 2.83572 5.83825 6.27195 5.83825H9.07432C12.5439 5.83825 15.3463 8.50717 15.3463 11.8433V23.1528C15.3463 26.4556 12.5439 29.1913 9.07432 29.1913H6.27195C2.83572 29.1913 0 26.4556 0 23.1528ZM2.3353 0H13.011V3.33614H2.3353V0ZM6.27195 25.8218H9.07432C10.6757 25.8218 12.0435 24.6207 12.0435 23.1528V11.8433C12.0435 10.342 10.7424 9.1744 9.07432 9.1744H6.27195C4.60388 9.1744 3.30278 10.3754 3.30278 11.8433V23.1528C3.30278 24.6207 4.6706 25.8218 6.27195 25.8218ZM25.288 19.8501H21.8518V29.1913H18.5156V5.83826H27.1896C30.5257 5.83826 33.1947 8.50718 33.1947 11.8433V13.845C33.1947 16.614 31.3598 18.916 28.8243 19.6165L33.1947 29.1913H29.5249L25.288 19.8501ZM27.1896 16.5139C28.6909 16.5139 29.8585 15.3463 29.8585 13.845V11.8433C29.8585 10.3421 28.6909 9.17441 27.1896 9.17441H21.8518V16.5139H27.1896ZM35.8629 11.8433V23.1529C35.8629 26.4556 38.5652 29.1913 41.868 29.1913H44.5369C47.873 29.1913 50.5419 26.4556 50.5419 23.1529V21.318H47.2058V23.1529C47.2058 24.6208 46.0048 25.8218 44.5369 25.8218H41.868C40.4001 25.8218 39.199 24.6208 39.199 23.1529V11.8433C39.199 10.3754 40.3667 9.17441 41.868 9.17441H44.5369C46.0381 9.17441 47.2058 10.3421 47.2058 11.8433V13.6782H50.5419V11.8433C50.5419 8.50718 47.873 5.83826 44.5369 5.83826H41.868C38.5652 5.83826 35.8629 8.50718 35.8629 11.8433ZM56.7139 15.1795H65.3879V5.83826H68.724V29.1913H65.3879V18.5156H56.7139V29.1913H53.3777V5.83826H56.7139V15.1795ZM77.1312 25.8551H71.4598V29.1913H86.1388V25.8551H80.4674V9.1744H86.1388V5.83825H71.4598V9.1744H77.1312V25.8551ZM84.1371 0H73.4614V3.33614H84.1371V0ZM88.8738 5.83826H97.5478C100.851 5.83826 103.553 8.50718 103.553 11.8433V23.1529C103.553 26.4556 100.851 29.1913 97.5478 29.1913H88.8738V5.83826ZM97.5478 25.8218C99.0157 25.8218 100.217 24.6208 100.217 23.1529V11.8433C100.217 10.3754 99.0491 9.17441 97.5478 9.17441H92.21V25.8218H97.5478ZM105.988 9.17441H116.163L105.988 25.8551V29.1913H120V25.8551H109.858L120 9.17441V5.83826H105.988V9.17441Z" fill="white"/>
</svg>
