<svg width="30" height="40" viewBox="0 0 30 40" fill="none" xmlns="http://www.w3.org/2000/svg">
<path fill-rule="evenodd" clip-rule="evenodd" d="M17.5041 13.8353C17.5651 13.7423 17.6206 13.6458 17.6703 13.5463C17.8845 13.1285 17.9959 12.6657 17.9953 12.1963C17.9953 11.4019 17.6798 10.64 17.118 10.0783C16.5563 9.51654 15.7944 9.20096 15 9.20096C14.2056 9.20096 13.4437 9.51654 12.882 10.0783C12.3202 10.64 12.0047 11.4019 12.0047 12.1963C12.0046 12.6657 12.116 13.1284 12.3297 13.5463C12.3802 13.6454 12.4356 13.7419 12.4959 13.8353C12.7677 14.2517 13.139 14.5938 13.5762 14.8306C14.0134 15.0673 14.5028 15.1913 15 15.1913C15.4972 15.1913 15.9866 15.0673 16.4238 14.8306C16.861 14.5938 17.2323 14.2517 17.5041 13.8353ZM21.7424 12.1963C21.7421 13.0611 21.5738 13.9177 21.2469 14.7184L21.0563 15.1916H30V18.9377H0V15.1916H8.94473L8.75309 14.7184C8.42657 13.9176 8.25865 13.0611 8.25863 12.1963C8.25868 11.7338 8.30621 11.2726 8.40051 10.8199L8.45027 10.5763L1.07256 6.31679L2.94663 3.07263L10.3339 7.33747L10.5192 7.1723C11.2065 6.55508 12.014 6.08648 12.8909 5.79586L13.127 5.71751V0H16.8741V5.71751L17.1091 5.79586C17.9863 6.08581 18.7939 6.55449 19.4808 7.1723L19.6661 7.33747L27.0534 3.07263L28.9264 6.31679L21.5497 10.5763L21.6006 10.8199C21.6948 11.2726 21.7423 11.7338 21.7424 12.1963ZM16.873 39.2169H13.1259V26.0909H0V22.3438H29.9989V26.0909H16.873V39.2169Z" fill="white"/>
</svg>
