<svg width="25" height="33" viewBox="0 0 25 33" fill="none" xmlns="http://www.w3.org/2000/svg">
<path fill-rule="evenodd" clip-rule="evenodd" d="M14.5867 11.5294C14.6376 11.4519 14.6838 11.3715 14.7252 11.2886C14.9037 10.9405 14.9966 10.5548 14.9961 10.1636C14.9961 9.50157 14.7331 8.86668 14.265 8.39856C13.7969 7.93045 13.162 7.66747 12.5 7.66747C11.838 7.66747 11.2031 7.93045 10.735 8.39856C10.2669 8.86668 10.0039 9.50157 10.0039 10.1636C10.0038 10.5547 10.0967 10.9403 10.2748 11.2886C10.3168 11.3712 10.363 11.4516 10.4133 11.5294C10.6397 11.8764 10.9491 12.1615 11.3135 12.3588C11.6778 12.5561 12.0856 12.6594 12.5 12.6594C12.9144 12.6594 13.3222 12.5561 13.6865 12.3588C14.0509 12.1615 14.3603 11.8764 14.5867 11.5294ZM18.1187 10.1636C18.1184 10.8843 17.9782 11.5981 17.7058 12.2653L17.5469 12.6597H25V15.7814H0V12.6597H7.45394L7.29424 12.2653C7.02214 11.598 6.88221 10.8842 6.88219 10.1636C6.88223 9.7782 6.92184 9.39384 7.00042 9.01655L7.04189 8.81362L0.893803 5.26399L2.45553 2.56053L8.61156 6.11456L8.76597 5.97692C9.33877 5.46257 10.0116 5.07207 10.7424 4.82989L10.9392 4.76459V0H14.0617V4.76459L14.2576 4.82989C14.9886 5.07151 15.6616 5.46207 16.234 5.97692L16.3884 6.11456L22.5445 2.56053L24.1053 5.26399L17.9581 8.81362L18.0005 9.01655C18.079 9.39385 18.1186 9.7782 18.1187 10.1636ZM14.0608 32.6807H10.9383V21.7425H0V18.6199H24.9991V21.7425H14.0608V32.6807Z" fill="white"/>
</svg>
