<svg width="20" height="27" viewBox="0 0 20 27" fill="none" xmlns="http://www.w3.org/2000/svg">
<path fill-rule="evenodd" clip-rule="evenodd" d="M11.6694 9.22355C11.7101 9.16154 11.7471 9.09719 11.7802 9.03085C11.923 8.75236 11.9973 8.44383 11.9969 8.13087C11.9969 7.60126 11.7865 7.09334 11.412 6.71885C11.0375 6.34436 10.5296 6.13397 10 6.13397C9.47039 6.13397 8.96247 6.34436 8.58798 6.71885C8.21349 7.09334 8.00311 7.60126 8.00311 8.13087C8.00308 8.44379 8.07735 8.75224 8.21981 9.03085C8.25345 9.09692 8.29043 9.16124 8.33063 9.22355C8.51178 9.50115 8.7593 9.7292 9.05079 9.88704C9.34227 10.0449 9.66852 10.1276 10 10.1276C10.3315 10.1276 10.6577 10.0449 10.9492 9.88704C11.2407 9.7292 11.4882 9.50115 11.6694 9.22355ZM14.495 8.13087C14.4947 8.70743 14.3825 9.27845 14.1646 9.81224L14.0376 10.1278H20V12.6251H0V10.1278H5.96315L5.83539 9.81224C5.61772 9.2784 5.50576 8.70738 5.50575 8.13087C5.50578 7.82256 5.53748 7.51507 5.60034 7.21324L5.63352 7.05089L0.715042 4.2112L1.96442 2.04842L6.88925 4.89165L7.01278 4.78153C7.47102 4.37005 8.00931 4.05765 8.59392 3.86391L8.75132 3.81168V0H11.2494V3.81168L11.4061 3.86391C11.9909 4.05721 12.5293 4.36966 12.9872 4.78153L13.1108 4.89165L18.0356 2.04842L19.2843 4.2112L14.3665 7.05089L14.4004 7.21324C14.4632 7.51508 14.4949 7.82256 14.495 8.13087ZM11.2487 26.1446H8.75062V17.3939H0V14.8959H19.9993V17.3939H11.2487V26.1446Z" fill="white"/>
</svg>
