<svg width="11" height="15" viewBox="0 0 11 15" fill="none" xmlns="http://www.w3.org/2000/svg">
<path fill-rule="evenodd" clip-rule="evenodd" d="M6.41816 5.07295C6.44053 5.03885 6.46088 5.00346 6.47911 4.96697C6.55764 4.8138 6.5985 4.64411 6.59829 4.47198C6.59829 4.18069 6.48258 3.90134 6.27661 3.69537C6.07064 3.4894 5.79129 3.37369 5.5 3.37369C5.20871 3.37369 4.92936 3.4894 4.72339 3.69537C4.51742 3.90134 4.40171 4.18069 4.40171 4.47198C4.40169 4.64408 4.44254 4.81373 4.52089 4.96697C4.53939 5.00331 4.55974 5.03868 4.58184 5.07295C4.68148 5.22563 4.81762 5.35106 4.97793 5.43788C5.13825 5.52469 5.31769 5.57016 5.5 5.57016C5.68231 5.57016 5.86175 5.52469 6.02207 5.43788C6.18238 5.35106 6.31852 5.22563 6.41816 5.07295ZM7.97222 4.47198C7.9721 4.78908 7.91039 5.10315 7.79053 5.39673L7.72065 5.57027H11V6.94381H0V5.57027H3.27973L3.20947 5.39673C3.08974 5.10312 3.02817 4.78906 3.02816 4.47198C3.02818 4.30241 3.04561 4.13329 3.08019 3.96728L3.09843 3.87799L0.393273 2.31616L1.08043 1.12663L3.78909 2.69041L3.85703 2.62984C4.10906 2.40353 4.40512 2.23171 4.72665 2.12515L4.81323 2.09642V0H6.18716V2.09642L6.27335 2.12515C6.59499 2.23146 6.8911 2.40331 7.14297 2.62984L7.21091 2.69041L9.91957 1.12663L10.6063 2.31616L7.90157 3.87799L7.9202 3.96728C7.95476 4.13329 7.97219 4.30241 7.97222 4.47198ZM6.18677 14.3795H4.81284V9.56666H0V8.19273H10.9996V9.56666H6.18677V14.3795Z" fill="white"/>
</svg>
