<svg width="150" height="37" viewBox="0 0 150 37" fill="none" xmlns="http://www.w3.org/2000/svg">
<path fill-rule="evenodd" clip-rule="evenodd" d="M0 28.9411V14.8041C0 10.634 3.54465 7.29782 7.83994 7.29782H11.3429C15.6799 7.29782 19.1828 10.634 19.1828 14.8041V28.9411C19.1828 33.0695 15.6799 36.4891 11.3429 36.4891H7.83994C3.54465 36.4891 0 33.0695 0 28.9411ZM2.91913 0H16.2637V4.17018H2.91913V0ZM7.83994 32.2772H11.3429C13.3446 32.2772 15.0544 30.7759 15.0544 28.9411V14.8041C15.0544 12.9276 13.428 11.468 11.3429 11.468H7.83994C5.75485 11.468 4.12848 12.9693 4.12848 14.8041V28.9411C4.12848 30.7759 5.83825 32.2772 7.83994 32.2772ZM31.61 24.8126H27.3147V36.4891H23.1445V7.29783H33.987C38.1572 7.29783 41.4933 10.634 41.4933 14.8042V17.3063C41.4933 20.7675 39.1997 23.6449 36.0304 24.5207L41.4933 36.4891H36.9061L31.61 24.8126ZM33.987 20.6424C35.8636 20.6424 37.3231 19.1828 37.3231 17.3063V14.8042C37.3231 12.9276 35.8636 11.468 33.987 11.468H27.3147V20.6424H33.987ZM44.8294 14.8042V28.9411C44.8294 33.0696 48.2072 36.4891 52.3357 36.4891H55.6719C59.842 36.4891 63.1782 33.0696 63.1782 28.9411V26.6475H59.008V28.9411C59.008 30.776 57.5067 32.2772 55.6719 32.2772H52.3357C50.5008 32.2772 48.9996 30.776 48.9996 28.9411V14.8042C48.9996 12.9693 50.4591 11.468 52.3357 11.468H55.6719C57.5484 11.468 59.008 12.9276 59.008 14.8042V17.0978H63.1782V14.8042C63.1782 10.634 59.842 7.29783 55.6719 7.29783H52.3357C48.2072 7.29783 44.8294 10.634 44.8294 14.8042ZM70.8917 18.9743H81.7341V7.29783H85.9043V36.4891H81.7341V23.1445H70.8917V36.4891H66.7215V7.29783H70.8917V18.9743ZM96.4132 32.3189H89.3239V36.4891H107.673V32.3189H100.583V11.468H107.673V7.29782H89.3239V11.468H96.4132V32.3189ZM105.171 0H91.826V4.17018H105.171V0ZM111.092 7.29783H121.935C126.063 7.29783 129.441 10.634 129.441 14.8042V28.9411C129.441 33.0696 126.063 36.4891 121.935 36.4891H111.092V7.29783ZM121.935 32.2772C123.769 32.2772 125.271 30.776 125.271 28.9411V14.8042C125.271 12.9693 123.811 11.468 121.935 11.468H115.262V32.2772H121.935ZM132.485 11.468H145.204L132.485 32.3189V36.4891H150V32.3189H137.323L150 11.468V7.29783H132.485V11.468Z" fill="white"/>
</svg>
