<svg width="150" height="37" viewBox="0 0 150 37" fill="none" xmlns="http://www.w3.org/2000/svg">
<path fill-rule="evenodd" clip-rule="evenodd" d="M0 28.941V14.8041C0 10.6339 3.54465 7.29781 7.83993 7.29781H11.3429C15.6799 7.29781 19.1828 10.6339 19.1828 14.8041V28.941C19.1828 33.0695 15.6799 36.489 11.3429 36.489H7.83993C3.54465 36.489 0 33.0695 0 28.941ZM2.91912 0H16.2637V4.17018H2.91912V0ZM7.83993 32.2772H11.3429C13.3446 32.2772 15.0543 30.7759 15.0543 28.941V14.8041C15.0543 12.9275 13.428 11.468 11.3429 11.468H7.83993C5.75484 11.468 4.12847 12.9692 4.12847 14.8041V28.941C4.12847 30.7759 5.83825 32.2772 7.83993 32.2772ZM31.61 24.8126H27.3147V36.4891H23.1445V7.29782H33.987C38.1571 7.29782 41.4933 10.634 41.4933 14.8041V17.3062C41.4933 20.7675 39.1997 23.6449 36.0303 24.5206L41.4933 36.4891H36.9061L31.61 24.8126ZM33.987 20.6424C35.8635 20.6424 37.3231 19.1828 37.3231 17.3062V14.8041C37.3231 12.9276 35.8635 11.468 33.987 11.468H27.3147V20.6424H33.987ZM44.8295 14.8041V28.941C44.8295 33.0695 48.2073 36.4891 52.3358 36.4891H55.672C59.8421 36.4891 63.1783 33.0695 63.1783 28.941V26.6474H59.0081V28.941C59.0081 30.7759 57.5068 32.2772 55.672 32.2772H52.3358C50.5009 32.2772 48.9997 30.7759 48.9997 28.941V14.8041C48.9997 12.9693 50.4592 11.468 52.3358 11.468H55.672C57.5485 11.468 59.0081 12.9276 59.0081 14.8041V17.0977H63.1783V14.8041C63.1783 10.634 59.8421 7.29782 55.672 7.29782H52.3358C48.2073 7.29782 44.8295 10.634 44.8295 14.8041ZM70.8921 18.9743H81.7345V7.29782H85.9047V36.4891H81.7345V23.1445H70.8921V36.4891H66.7219V7.29782H70.8921V18.9743ZM96.4134 32.3189H89.3241V36.489H107.673V32.3189H100.584V11.468H107.673V7.29781H89.3241V11.468H96.4134V32.3189ZM105.171 0H91.8262V4.17018H105.171V0ZM111.092 7.29782H121.935C126.063 7.29782 129.441 10.634 129.441 14.8041V28.941C129.441 33.0695 126.063 36.4891 121.935 36.4891H111.092V7.29782ZM121.935 32.2772C123.77 32.2772 125.271 30.7759 125.271 28.941V14.8041C125.271 12.9693 123.811 11.468 121.935 11.468H115.262V32.2772H121.935ZM132.485 11.468H145.204L132.485 32.3189V36.4891H150V32.3189H137.323L150 11.468V7.29782H132.485V11.468Z" fill="black"/>
</svg>
