<svg width="50" height="51" viewBox="0 0 50 51" fill="none" xmlns="http://www.w3.org/2000/svg">
<path d="M0 25.0591L18.6734 23.7798L1.91357 15.6633L19.5442 21.4578L7.07375 7.65427L21.232 19.6087L14.9108 2.20383L23.7798 19.0819L25.0591 0L26.2739 19.0282L35.2075 2.20383L28.768 19.6624L43.0983 7.71877L30.6278 21.4578L48.1402 15.717L31.3804 23.7798L50 25.0591L31.4341 26.2739L48.1402 34.3367L30.5633 28.596L42.98 42.3457L28.768 30.3913L35.2075 47.8499L26.2739 31.0363L25.0591 50.0538L23.7798 31.0363L14.9108 47.8499L21.232 30.5096L7.13825 42.4532L19.6087 28.596L1.91357 34.4012L18.6197 26.2739L0 25.0591Z" fill="white"/>
</svg>
