<svg width="56" height="56" viewBox="0 0 56 56" fill="none" xmlns="http://www.w3.org/2000/svg">
<path d="M0 28.0361L20.9142 26.6048L2.1432 17.5241L21.8895 24.0069L7.9226 8.56357L23.7798 21.9381L16.7001 2.46564L26.6334 21.3488L28.0662 0L29.4268 21.2887L39.4324 2.46564L32.2202 21.9983L48.2701 8.63574L34.3032 24.0069L53.917 17.5842L35.146 26.6048L56 28.0361L35.2062 29.3952L53.917 38.4158L34.2309 31.9931L48.1376 47.3763L32.2202 34.0017L39.4324 53.5344L29.4268 34.7234L28.0662 56L26.6334 34.7234L16.7001 53.5344L23.7798 34.134L7.99484 47.4966L21.9617 31.9931L2.1432 38.488L20.854 29.3952L0 28.0361Z" fill="white"/>
</svg>
