<svg width="22" height="18" viewBox="0 0 22 18" fill="none" xmlns="http://www.w3.org/2000/svg">
<path d="M22 2.12144C21.191 2.47993 20.3219 2.72216 19.4082 2.83165C20.3509 2.26754 21.0562 1.37971 21.3925 0.333806C20.5068 0.859912 19.5374 1.23023 18.5265 1.42867C17.8467 0.702829 16.9462 0.221729 15.965 0.0600649C14.9837 -0.101599 13.9766 0.065217 13.0999 0.534615C12.2231 1.00401 11.5259 1.74973 11.1164 2.65599C10.7069 3.56225 10.6081 4.57834 10.8353 5.54653C9.04057 5.45641 7.28485 4.98994 5.68208 4.17737C4.07931 3.3648 2.66531 2.2243 1.53184 0.829887C1.14428 1.49843 0.921431 2.27356 0.921431 3.09907C0.920998 3.84221 1.104 4.57398 1.45421 5.22943C1.80442 5.88489 2.311 6.44377 2.92901 6.85649C2.21228 6.83368 1.51137 6.64002 0.884612 6.29161V6.34975C0.88454 7.39204 1.24508 8.40226 1.90505 9.20899C2.56502 10.0157 3.48377 10.5693 4.50542 10.7757C3.84054 10.9557 3.14346 10.9822 2.46684 10.8532C2.75508 11.7501 3.31656 12.5343 4.07267 13.0962C4.82878 13.658 5.74166 13.9694 6.68352 13.9867C5.08466 15.2418 3.11008 15.9226 1.07742 15.9196C0.71736 15.9197 0.357601 15.8987 0 15.8567C2.06326 17.1833 4.46505 17.8873 6.918 17.8846C15.2215 17.8846 19.7609 11.0073 19.7609 5.04269C19.7609 4.84891 19.756 4.65319 19.7473 4.45941C20.6302 3.82088 21.3924 3.03017 21.9981 2.12435L22 2.12144Z" fill="white"/>
</svg>
