<svg width="38" height="38" viewBox="0 0 38 38" fill="none" xmlns="http://www.w3.org/2000/svg">
<path d="M0 19.0245L14.1918 18.0533L1.45431 11.8913L14.8536 16.2904L5.37605 5.811L16.1363 14.8866L11.3322 1.67311L18.0727 14.4867L19.0449 0L19.9682 14.4459L26.7577 1.67311L21.8637 14.9274L32.7547 5.85997L23.2771 16.2904L36.5865 11.9321L23.8491 18.0533L38 19.0245L23.8899 19.9467L36.5865 26.0679L23.2281 21.7096L32.6648 32.1482L21.8637 23.0726L26.7577 36.3269L19.9682 23.5623L19.0449 38L18.0727 23.5623L11.3322 36.3269L16.1363 23.1624L5.42507 32.2298L14.9026 21.7096L1.45431 26.1168L14.1509 19.9467L0 19.0245Z" fill="#F8DCFF"/>
</svg>
